<?xml version="1.0" encoding="utf-8"?>
<!-- Generator: Adobe Illustrator 25.2.3, SVG Export Plug-In . SVG Version: 6.00 Build 0)  -->
<svg version="1.1" id="Layer_1" xmlns="http://www.w3.org/2000/svg" xmlns:xlink="http://www.w3.org/1999/xlink" x="0px" y="0px"
	 viewBox="0 0 945.7 297.1" style="enable-background:new 0 0 945.7 297.1;" xml:space="preserve">
<style type="text/css">
	.st0{fill:url(#SVGID_1_);}
	.st1{fill:url(#SVGID_2_);}
	.st2{fill:url(#SVGID_3_);}
	.st3{fill:url(#SVGID_4_);}
	.st4{fill:#FFFFFF;}
	.st5{fill-rule:evenodd;clip-rule:evenodd;fill:#FFFFFF;}
</style>
<g>
	
		<linearGradient id="SVGID_1_" gradientUnits="userSpaceOnUse" x1="473.05" y1="-217.8244" x2="473.05" y2="79.1756" gradientTransform="matrix(1 0 0 -1 0 79.2756)">
		<stop  offset="0" style="stop-color:#5525D0"/>
		<stop  offset="1" style="stop-color:#BEBEFF"/>
	</linearGradient>
	<path class="st0" d="M473,297.1c-71.9,0-140.9-5-205.2-14.7l0.2-0.8c64.2,9.7,133.2,14.7,205.1,14.7c65.2,0,128.2-4.1,187.5-12.1
		l0.1,0.8C601.2,293,538.1,297.1,473,297.1z M673.1,283.1l-0.1-0.8c17.6-2.6,34.8-5.5,51.3-8.8c5.4-1,10.6-2.1,15.8-3.2
		c61.9-13.4,113.4-31.4,149.1-52.2c36.5-21.3,55.8-45.4,55.8-69.6s-19.3-48.3-55.8-69.6c-8.5-5-18-9.8-28.3-14.4l0.3-0.7
		c10.3,4.6,19.9,9.5,28.4,14.5c36.8,21.4,56.2,45.8,56.2,70.3s-19.5,48.8-56.2,70.3c-35.7,20.9-87.3,38.9-149.4,52.3
		c-5.1,1.1-10.5,2.2-15.8,3.2C707.9,277.6,690.6,280.5,673.1,283.1z M255.3,280.5c-11.4-1.9-22.8-3.9-33.8-6.1
		c-5.4-1-10.7-2.1-15.8-3.2c-62-13.4-113.6-31.4-149.2-52.2c-36.7-21.5-56.2-45.8-56.2-70.4c0-24,18.7-47.9,54-69l0.4,0.7
		c-35.1,21-53.6,44.6-53.6,68.3c0,24.3,19.3,48.3,55.8,69.6C92.4,238.9,144,257,206,270.4c5.1,1.1,10.5,2.2,15.8,3.2
		c11,2.1,22.3,4.2,33.7,6.1L255.3,280.5z M65.7,74.1l-0.3-0.7c35-18.7,83.5-35,140.4-47.3c5.2-1.1,10.5-2.2,15.8-3.2
		c68.3-13.5,147.2-21.3,228-22.5v0.8c-80.8,1.2-159.6,9-227.8,22.5c-5.3,1-10.6,2.1-15.8,3.2C149.1,39.1,100.6,55.5,65.7,74.1z
		 M849.2,59.6C818.6,46.9,781.8,35.9,740,26.9c-5.2-1.1-10.5-2.2-15.8-3.2C649.1,8.8,562.2,0.9,473,0.9c-3.6,0-7.2,0-10.9,0V0.1
		c3.6,0,7.2,0,10.9,0c89.3,0,176.2,7.9,251.4,22.7c5.3,1,10.6,2.1,15.8,3.2c41.8,9.1,78.6,20,109.3,32.7L849.2,59.6z"/>
</g>
<g>
	
		<linearGradient id="SVGID_2_" gradientUnits="userSpaceOnUse" x1="473" y1="-159.5244" x2="473" y2="20.8756" gradientTransform="matrix(1 0 0 -1 0 79.2756)">
		<stop  offset="0" style="stop-color:#5525D0"/>
		<stop  offset="1" style="stop-color:#BEBEFF"/>
	</linearGradient>
	<path class="st1" d="M473,238.8c-57.8,0-114.2-4.6-163.1-13.6c-3.5-0.6-6.9-1.3-10.2-2c-41.1-8.1-75.3-19.1-98.9-31.8
		c-24.4-13.1-37.3-28-37.3-42.9c0-10.4,6-20.6,17.8-30.2l0.5,0.6c-11.7,9.5-17.6,19.5-17.6,29.6c0,14.7,12.8,29.3,36.9,42.2
		c23.6,12.7,57.7,23.6,98.7,31.7c3.4,0.6,6.8,1.3,10.2,2c48.8,8.8,105.2,13.5,162.9,13.5c6.8,0,13.6-0.1,20.4-0.2v0.8
		C486.6,238.7,479.7,238.8,473,238.8z M506.1,238.3v-0.8c46.5-1.4,90.2-5.8,129.9-13c3.5-0.6,6.9-1.3,10.2-2
		c41-8.1,75.2-19.1,98.7-31.7c24.1-12.9,36.9-27.6,36.9-42.2s-12.8-29.3-36.9-42.2c-23.6-12.7-57.7-23.6-98.7-31.7
		c-3.4-0.6-6.8-1.3-10.2-2c-14.6-2.6-29.9-5-45.8-6.9l0.1-0.8c15.8,1.9,31.3,4.2,45.8,6.9c3.5,0.6,6.9,1.3,10.2,2
		c41.1,8.1,75.3,19.1,98.9,31.8c24.4,13.1,37.3,28,37.3,42.9s-12.9,29.9-37.3,42.9c-23.6,12.7-57.8,23.7-98.9,31.8
		c-3.4,0.6-6.9,1.3-10.2,2C596.3,232.5,552.5,236.8,506.1,238.3z M191.9,111.6l-0.4-0.6c2.8-1.8,6-3.6,9.2-5.4
		c23.6-12.7,57.8-23.7,98.9-31.8c3.4-0.6,6.9-1.3,10.2-2C358.7,63,415.1,58.4,473,58.4c35.9,0,71.2,1.8,104.7,5.3l-0.1,0.8
		c-33.5-3.5-68.7-5.3-104.6-5.3c-57.7,0-114.2,4.6-162.9,13.5c-3.5,0.6-6.9,1.3-10.2,2c-41,8.1-75.2,19.1-98.7,31.7
		C197.8,108.1,194.7,109.9,191.9,111.6z"/>
</g>
<g>
	
		<linearGradient id="SVGID_3_" gradientUnits="userSpaceOnUse" x1="472.9499" y1="-131.1244" x2="472.9499" y2="-7.5244" gradientTransform="matrix(1 0 0 -1 0 79.2756)">
		<stop  offset="0" style="stop-color:#5525D0"/>
		<stop  offset="1" style="stop-color:#BEBEFF"/>
	</linearGradient>
	<path class="st2" d="M473,210.4c-42.6,0-84.2-3.2-120.4-9.1c-2.5-0.4-5.1-0.9-7.6-1.3c-31-5.5-56.8-13.1-74.6-21.8
		c-4.3-2.1-8.3-4.3-11.7-6.6l0.5-0.6c3.3,2.2,7.2,4.4,11.6,6.5c17.8,8.7,43.5,16.2,74.4,21.7c2.5,0.5,5,0.9,7.6,1.3
		c36,5.9,77.6,9.1,120.1,9.1s84.1-3.2,120.3-9.1c2.5-0.4,5.1-0.9,7.6-1.3c16.4-2.9,31.3-6.4,44.4-10.3l0.2,0.8
		c-13.1,3.9-28,7.4-44.4,10.4c-2.5,0.5-5.1,0.9-7.6,1.3C557.2,207.3,515.6,210.4,473,210.4z M657.5,185.8l-0.2-0.7
		c6.7-2.4,12.8-4.9,18.1-7.6c9-4.4,15.9-9.1,20.6-13.9c4.7-4.9,7.1-9.9,7.1-15c0-5-2.4-10.1-7.1-15c-4.6-4.8-11.6-9.5-20.6-13.9
		C657.6,111,631.9,103.5,601,98c-2.6-0.5-5.1-0.9-7.6-1.3c-36.2-5.9-77.8-9.1-120.3-9.1s-84.1,3.2-120.3,9.1
		c-2.5,0.4-5.1,0.9-7.6,1.3c-30.9,5.5-56.6,13.1-74.4,21.7c-9,4.4-15.9,9.1-20.6,13.9c-4.7,4.9-7.1,9.9-7.1,15
		c0,4.9,2.2,9.7,6.5,14.4l-0.6,0.6c-4.5-4.9-6.8-9.8-6.8-15c0-5.3,2.4-10.5,7.3-15.5c4.7-4.9,11.7-9.6,20.8-14.1
		c17.9-8.7,43.6-16.3,74.6-21.8c2.5-0.5,5.1-0.9,7.6-1.3c36.2-5.9,77.8-9.1,120.5-9.1s84.2,3.2,120.4,9.1c2.5,0.4,5,0.9,7.6,1.3
		c31,5.5,56.8,13.1,74.6,21.8c9.1,4.4,16.1,9.2,20.8,14.1c4.9,5,7.3,10.2,7.3,15.5s-2.4,10.5-7.3,15.5c-4.7,4.9-11.7,9.6-20.8,14.1
		C670.3,180.8,664.2,183.4,657.5,185.8z"/>
</g>
<g>
	
		<linearGradient id="SVGID_4_" gradientUnits="userSpaceOnUse" x1="473" y1="-188.6244" x2="473" y2="49.9756" gradientTransform="matrix(1 0 0 -1 0 79.2756)">
		<stop  offset="0" style="stop-color:#5525D0"/>
		<stop  offset="1" style="stop-color:#BEBEFF"/>
	</linearGradient>
	<path class="st3" d="M473,267.9c-73.7,0-145.6-6.2-207.8-18.1c-4.4-0.9-8.8-1.7-13.1-2.6c-25.2-5.2-48.4-11.3-69-18.3l0.2-0.7
		c20.6,6.9,43.8,13,68.9,18.2c4.3,0.9,8.7,1.7,13.1,2.6c62.2,11.8,133.9,18.1,207.7,18.1c34,0,67.7-1.3,100.2-3.9l0.1,0.8
		C540.7,266.6,506.9,267.9,473,267.9z M585.9,262.9l-0.1-0.8c33.3-3.1,65.2-7.4,94.9-13.1c4.4-0.9,8.8-1.7,13.1-2.6
		c51.7-10.7,94.7-25.2,124.3-41.9c30.4-17.2,46.5-36.5,46.5-55.9s-16.1-38.8-46.5-55.9c-22.8-12.8-52.8-24.2-89.2-33.7l0.2-0.8
		c36.5,9.5,66.6,21,89.3,33.8c30.7,17.3,46.9,36.9,46.9,56.6s-16.2,39.4-46.9,56.6c-29.7,16.7-72.8,31.3-124.6,42
		c-4.3,0.9-8.7,1.7-13.1,2.6C651.2,255.5,619.2,259.9,585.9,262.9z M171.2,224.8c-16.6-6.1-31.3-12.7-43.6-19.6
		c-30.7-17.3-46.9-36.9-46.9-56.6s16.2-39.4,46.9-56.6c29.7-16.7,72.8-31.3,124.6-42c4.3-0.9,8.7-1.7,13.1-2.6
		c15.1-2.9,31-5.4,47.3-7.7l0.1,0.8c-16.2,2.2-32.1,4.8-47.3,7.6c-4.4,0.9-8.8,1.7-13.1,2.6C200.6,61.4,157.6,75.9,128,92.6
		c-30.4,17.2-46.5,36.5-46.5,55.9s16.1,38.8,46.5,55.9c12.3,6.9,26.9,13.5,43.5,19.5L171.2,224.8z M716.6,55.9
		c-7.4-1.8-15.1-3.5-22.9-5.1c-4.3-0.9-8.7-1.7-13.1-2.6C618.5,36.3,546.7,30,473,30c-51.1,0-100.9,2.9-147.9,8.7L325,38
		c47-5.8,96.7-8.7,147.9-8.7c73.7,0,145.6,6.2,207.8,18.1c4.4,0.9,8.8,1.7,13.1,2.6c7.8,1.7,15.5,3.4,22.9,5.1L716.6,55.9z"/>
</g>
<g>
	<g>
		<path class="st4" d="M433.6,149.8c0,1.5-0.2,2.9-0.7,4.1c-0.5,1.3-1.1,2.3-2,3.2c-0.8,0.9-1.8,1.6-3,2.1c-1.1,0.5-2.3,0.7-3.6,0.7
			s-2.5-0.3-3.6-0.8s-2.1-1.2-3-2.1c-0.8-0.9-1.5-2-2-3.2c-0.5-1.3-0.7-2.6-0.7-4.1v-15.1h1.2l1.6,2.2c0,0,0.9,1.3,1.3,1.8
			s1.4,2,1.4,2c0.4-0.3,0.7-0.5,1.2-0.7c0.4-0.2,0.9-0.3,1.3-0.4c0.4-0.1,0.9-0.1,1.3-0.1c1.3,0,2.5,0.3,3.6,0.8s2.1,1.2,3,2.1
			c0.8,0.9,1.5,2,2,3.2C433.4,147,433.6,148.4,433.6,149.8z M429,149.8c0-0.7-0.1-1.4-0.4-2.1c-0.2-0.7-0.6-1.2-1-1.7
			s-0.9-0.8-1.5-1.1c-0.5-0.3-1.1-0.4-1.8-0.4c-0.6,0-1.2,0.1-1.8,0.4c-0.5,0.3-1,0.7-1.5,1.2c-0.4,0.5-0.7,1-1,1.7
			c-0.2,0.6-0.4,1.3-0.4,2s0.1,1.4,0.4,2.1c0.2,0.6,0.6,1.2,1,1.6c0.4,0.5,0.9,0.8,1.5,1.1s1.2,0.4,1.8,0.4s1.2-0.1,1.8-0.4
			c0.6-0.3,1.1-0.7,1.5-1.1s0.7-1,1-1.6C428.8,151.3,429,150.6,429,149.8z"/>
	</g>
	<g>
		<path class="st5" d="M506.9,159.7h-4.6v-14.3H500v-4.9h2.3v-0.9c0-1.2,0.2-2.3,0.6-3.3s1-2,1.7-2.7c0.7-0.8,1.6-1.4,2.6-1.8
			c1-0.5,2-0.7,3.1-0.7h3.5v4.9h-3.5c-0.5,0-1,0.1-1.4,0.3s-0.8,0.4-1.1,0.8c-0.3,0.3-0.5,0.7-0.7,1.2c-0.2,0.4-0.3,0.9-0.3,1.4v0.9
			h5.7v4.9h-5.7L506.9,159.7L506.9,159.7L506.9,159.7z M443.8,155.1c-0.2,0-0.4-0.1-0.5-0.1l8.7-11.1c-0.4-0.7-0.9-1.2-1.5-1.7
			s-1.2-1-1.8-1.3c-0.6-0.3-1.3-0.6-2-0.8s-1.5-0.3-2.2-0.3c-1.3,0-2.5,0.3-3.6,0.7c-1.1,0.5-2.1,1.2-2.9,2.1c-0.8,0.9-1.5,2-2,3.2
			c-0.5,1.3-0.7,2.6-0.7,4.2c0,1.5,0.2,2.8,0.7,4.1c0.5,1.2,1.1,2.3,2,3.2s1.8,1.6,2.9,2.1s2.3,0.7,3.6,0.7c0.7,0,1.5-0.1,2.2-0.3
			s1.4-0.4,2-0.8c0.7-0.3,1.3-0.8,1.8-1.3c0.6-0.5,1.1-1.1,1.5-1.7l-3.4-3.6c-0.2,0.4-0.4,0.8-0.7,1.2c-0.3,0.3-0.6,0.7-1,0.9
			s-0.7,0.4-1.2,0.6c-0.4,0.1-0.9,0.2-1.3,0.2C444.2,155.1,444,155.1,443.8,155.1z M445,144.7c0.2,0,0.4,0.1,0.6,0.2l-5.4,7.6
			c-0.1-0.2-0.2-0.3-0.2-0.6c-0.1-0.2-0.1-0.4-0.2-0.7c0-0.2-0.1-0.5-0.1-0.7s0-0.4,0-0.6c0-0.8,0.1-1.5,0.4-2.2
			c0.2-0.7,0.5-1.2,1-1.7s0.9-0.8,1.4-1c0.6-0.3,1.2-0.4,1.8-0.4C444.6,144.7,444.8,144.7,445,144.7z M465.9,158.4
			c0.4-0.3,0.8-0.7,1.2-1l1.5,2.2h1.1v-19.3h-4.6V151c0,0.5-0.1,1-0.3,1.5c-0.2,0.5-0.4,0.9-0.7,1.3c-0.3,0.4-0.7,0.7-1.1,0.9
			s-0.9,0.3-1.3,0.3c-0.5,0-0.9-0.1-1.4-0.3c-0.4-0.2-0.8-0.4-1.1-0.8c-0.3-0.3-0.6-0.8-0.8-1.3c-0.2-0.5-0.3-1.1-0.3-1.7v-10.6
			h-4.6v10.6c0,1.4,0.2,2.6,0.6,3.7c0.4,1.1,1,2,1.7,2.8s1.6,1.3,2.6,1.8c1,0.4,2,0.6,3.1,0.6c0.5,0,1-0.1,1.5-0.2s1-0.3,1.4-0.5
			C465.1,159,465.5,158.8,465.9,158.4z M477.3,167h-4.7v-26.6h1.1l1.8,2.3c0.4-0.4,0.9-0.8,1.4-1.2s1-0.7,1.5-1s1.1-0.5,1.7-0.7
			s1.2-0.2,1.7-0.2c1.3,0,2.5,0.3,3.6,0.7c1.1,0.5,2.1,1.2,2.9,2c0.9,0.9,1.5,2,2,3.2s0.7,2.6,0.7,4.1c0,1.6-0.2,3-0.7,4.3
			s-1.1,2.3-2,3.2c-0.8,0.9-1.8,1.5-2.9,2s-2.3,0.7-3.6,0.7c-0.4,0-0.8,0-1.2-0.1s-0.8-0.2-1.2-0.4c-0.4-0.2-0.8-0.3-1.1-0.6
			c-0.4-0.2-0.7-0.4-1.1-0.6L477.3,167L477.3,167z M486.5,149.9c0-0.8-0.1-1.5-0.4-2.2c-0.2-0.7-0.6-1.2-1-1.6
			c-0.4-0.5-0.9-0.8-1.5-1s-1.2-0.3-1.8-0.3s-1.2,0.1-1.8,0.3c-0.5,0.2-1,0.6-1.4,1s-0.7,1-1,1.6c-0.2,0.7-0.4,1.4-0.4,2.2
			s0.1,1.5,0.4,2.1c0.2,0.7,0.6,1.2,1,1.7s0.9,0.8,1.4,1.1c0.6,0.3,1.2,0.4,1.8,0.4s1.2-0.1,1.8-0.4s1.1-0.6,1.5-1.1s0.7-1,1-1.7
			C486.4,151.4,486.5,150.7,486.5,149.9z M493.1,159.6h4.7v-19.3h-4.7V159.6z M519.4,162v4.9h2.4c1.3,0,2.5-0.3,3.6-0.8
			s2.1-1.2,2.9-2.1c0.8-0.9,1.5-1.9,2-3.1c0.5-1.2,0.7-2.4,0.7-3.8v-16.8h-4.7v10.6c0,0.5-0.1,1-0.3,1.5s-0.4,0.9-0.7,1.3
			c-0.3,0.4-0.7,0.7-1.1,0.9c-0.4,0.2-0.9,0.3-1.3,0.3c-0.5,0-0.9-0.1-1.4-0.3c-0.4-0.2-0.8-0.4-1.1-0.7s-0.6-0.8-0.8-1.3
			s-0.3-1.1-0.3-1.8v-10.6h-4.6v10.6c0,1.4,0.2,2.6,0.6,3.7c0.4,1.1,1,2,1.7,2.8s1.6,1.3,2.6,1.8c1,0.4,2,0.6,3.1,0.6
			c0.5,0,1.1-0.1,1.6-0.3s1.1-0.5,1.6-0.7c-0.2,0.4-0.4,0.9-0.7,1.2c-0.3,0.4-0.6,0.7-0.9,1c-0.4,0.3-0.7,0.5-1.1,0.7
			c-0.4,0.2-0.9,0.2-1.3,0.2L519.4,162z M497.8,133.2h-4.7v4.9h4.7V133.2z"/>
	</g>
</g>
</svg>
