<?xml version="1.0" encoding="utf-8"?>
<!-- Generator: Adobe Illustrator 25.2.3, SVG Export Plug-In . SVG Version: 6.00 Build 0)  -->
<svg version="1.1" id="Layer_1" xmlns="http://www.w3.org/2000/svg" xmlns:xlink="http://www.w3.org/1999/xlink" x="0px" y="0px"
	 viewBox="0 0 328 128" style="enable-background:new 0 0 328 128;" xml:space="preserve">
<style type="text/css">
	.st0{fill:none;stroke:url(#SVGID_1_);stroke-dasharray:120,16;}
	.st1{fill:none;stroke:url(#SVGID_2_);stroke-dasharray:110,16;}
	.st2{fill:none;stroke:url(#SVGID_3_);stroke-dasharray:167,16;}
	.st3{fill:none;stroke:url(#SVGID_4_);stroke-dasharray:140,16;}
	.st4{fill:#FFFFFF;}
	.st5{fill-rule:evenodd;clip-rule:evenodd;fill:#FFFFFF;}
</style>
<linearGradient id="SVGID_1_" gradientUnits="userSpaceOnUse" x1="164" y1="1.2756" x2="164" y2="129.2756" gradientTransform="matrix(1 0 0 -1 0 129.2756)">
	<stop  offset="0" style="stop-color:#5525D0"/>
	<stop  offset="1" style="stop-color:#BEBEFF"/>
</linearGradient>
<path class="st0" d="M254,117c1.9-0.5,3.8-1,5.6-1.5l0,0c20.6-5.8,37.6-13.4,49.4-22.2c11.6-8.4,18.4-18.8,18.4-29.2
	s-6.6-20.4-18.4-29.2c-11.8-8.8-28.8-16.4-49.4-22.2l0,0c-1.8-0.5-3.7-1-5.6-1.5l0,0c-25.8-6.6-56.8-10.5-90-10.5S99.8,4.4,74,11
	l0,0c-1.9,0.5-3.8,1-5.6,1.5l0,0c-20.6,5.8-37.6,13.4-49.4,22.2C7.1,43.6,0.5,53.5,0.5,64s6.6,20.4,18.4,29.2
	c11.8,8.8,28.8,16.4,49.4,22.2l0,0c1.8,0.5,3.7,1,5.6,1.5l0,0c25.8,6.6,56.8,10.5,90,10.5S228.2,123.6,254,117L254,117z"/>
<linearGradient id="SVGID_2_" gradientUnits="userSpaceOnUse" x1="164" y1="27.2756" x2="164" y2="104.2756" gradientTransform="matrix(1 0 0 -1 0 129.2756)">
	<stop  offset="0" style="stop-color:#5525D0"/>
	<stop  offset="1" style="stop-color:#BEBEFF"/>
</linearGradient>
<path class="st1" d="M221.9,95.4c1.2-0.3,2.4-0.6,3.6-0.9l0,0c13.7-3.5,24.9-8.1,32.8-13.4c7.8-5.3,12.2-11.3,12.2-17.6
	s-4.3-12.2-12.2-17.6c-7.8-5.3-19.1-9.9-32.8-13.4l0,0c-1.2-0.3-2.4-0.6-3.6-0.9l0,0c-16.7-3.9-36.6-6.1-57.9-6.1
	s-41.3,2.3-57.9,6.1l0,0c-1.2,0.3-2.4,0.6-3.6,0.9l0,0C88.8,36,77.5,40.6,69.7,45.9c-7.9,5.3-12.2,11.3-12.2,17.6
	s4.3,12.2,12.2,17.6c7.8,5.3,19.1,9.9,32.8,13.4l0,0c1.2,0.3,2.4,0.6,3.6,0.9l0,0c16.7,3.9,36.6,6.1,57.9,6.1S205.3,99.2,221.9,95.4
	L221.9,95.4z"/>
<linearGradient id="SVGID_3_" gradientUnits="userSpaceOnUse" x1="164" y1="37.2756" x2="164" y2="92.2756" gradientTransform="matrix(1 0 0 -1 0 129.2756)">
	<stop  offset="0" style="stop-color:#5525D0"/>
	<stop  offset="1" style="stop-color:#BEBEFF"/>
</linearGradient>
<path class="st2" d="M207,87.2c0.9-0.2,1.8-0.4,2.7-0.6l0,0c10.3-2.5,18.8-5.8,24.7-9.6c5.9-3.8,9.1-8.1,9.1-12.5s-3.2-8.7-9.1-12.5
	c-5.9-3.8-14.4-7.1-24.7-9.6l0,0c-0.9-0.2-1.8-0.4-2.7-0.6l0,0c-12.4-2.7-27.2-4.3-43-4.3s-30.6,1.6-43,4.3l0,0
	c-0.9,0.2-1.8,0.4-2.7,0.6l0,0C108,44.9,99.5,48.2,93.6,52c-5.9,3.8-9.1,8.1-9.1,12.5s3.2,8.7,9.1,12.5c5.9,3.8,14.4,7.1,24.7,9.6
	l0,0c0.9,0.2,1.8,0.4,2.7,0.6l0,0c12.4,2.7,27.2,4.3,43,4.3S194.6,89.9,207,87.2L207,87.2z"/>
<linearGradient id="SVGID_4_" gradientUnits="userSpaceOnUse" x1="164" y1="13.2756" x2="164" y2="117.2756" gradientTransform="matrix(1 0 0 -1 0 129.2756)">
	<stop  offset="0" style="stop-color:#5525D0"/>
	<stop  offset="1" style="stop-color:#BEBEFF"/>
</linearGradient>
<path class="st3" d="M238.4,107c1.6-0.4,3.1-0.8,4.6-1.2l0,0c17.2-4.7,31.3-10.9,41.2-18.1c9.8-7.2,15.3-15.3,15.3-23.7
	s-5.5-16.6-15.3-23.7c-9.8-7.2-24-13.4-41.2-18.1l0,0c-1.5-0.4-3.1-0.8-4.6-1.2l0,0c-21.4-5.4-46.9-8.5-74.4-8.5s-53,3.1-74.4,8.5
	l0,0c-1.6,0.4-3.1,0.8-4.6,1.2l0,0c-17.2,4.7-31.3,10.9-41.2,18.1C34,47.4,28.5,55.5,28.5,64S34,80.6,43.8,87.7
	c9.8,7.2,24,13.4,41.2,18.1l0,0c1.5,0.4,3.1,0.8,4.6,1.2l0,0c21.4,5.4,46.9,8.5,74.4,8.5S217,112.4,238.4,107L238.4,107z"/>
<path class="st4" d="M146.3,64.4c0,0.7-0.1,1.3-0.3,1.8c-0.2,0.6-0.5,1-0.9,1.4c-0.4,0.4-0.8,0.7-1.3,0.9c-0.5,0.2-1,0.3-1.6,0.3
	c-0.6,0-1.1-0.1-1.6-0.3c-0.5-0.2-0.9-0.5-1.3-0.9c-0.4-0.4-0.7-0.9-0.9-1.4c-0.2-0.6-0.3-1.2-0.3-1.8v-6.7h0.5l0.7,1
	c0,0,0.4,0.6,0.6,0.8c0.2,0.2,0.6,0.9,0.6,0.9c0.2-0.1,0.3-0.2,0.5-0.3c0.2-0.1,0.4-0.1,0.6-0.2c0.2,0,0.4-0.1,0.6-0.1
	c0.6,0,1.1,0.1,1.6,0.3c0.5,0.2,0.9,0.5,1.3,0.9c0.4,0.4,0.7,0.9,0.9,1.4C146.2,63.1,146.3,63.7,146.3,64.4z M144.3,64.4
	c0-0.3-0.1-0.6-0.2-0.9c-0.1-0.3-0.3-0.5-0.4-0.7c-0.2-0.2-0.4-0.4-0.7-0.5c-0.2-0.1-0.5-0.2-0.8-0.2s-0.6,0.1-0.8,0.2
	c-0.2,0.1-0.5,0.3-0.7,0.5c-0.2,0.2-0.3,0.5-0.4,0.7s-0.2,0.6-0.2,0.9c0,0.3,0.1,0.6,0.2,0.9s0.3,0.5,0.4,0.7
	c0.2,0.2,0.4,0.4,0.7,0.5c0.3,0.1,0.5,0.2,0.8,0.2s0.6-0.1,0.8-0.2c0.3-0.1,0.5-0.3,0.7-0.5c0.2-0.2,0.3-0.5,0.4-0.7
	S144.3,64.7,144.3,64.4z"/>
<path class="st5" d="M179.2,68.7h-2.1v-6.4h-1v-2.2h1v-0.4c0-0.5,0.1-1,0.3-1.5c0.2-0.5,0.5-0.9,0.8-1.2c0.3-0.3,0.7-0.6,1.2-0.8
	c0.4-0.2,0.9-0.3,1.4-0.3h1.6v2.2h-1.6c-0.2,0-0.4,0-0.6,0.1c-0.2,0.1-0.4,0.2-0.5,0.3c-0.1,0.1-0.2,0.3-0.3,0.5
	c-0.1,0.2-0.1,0.4-0.1,0.6v0.4h2.5v2.2h-2.5V68.7z M150.9,66.7c-0.1,0-0.2,0-0.2-0.1l3.9-4.9c-0.2-0.3-0.4-0.5-0.7-0.8
	c-0.3-0.2-0.5-0.4-0.8-0.6c-0.3-0.2-0.6-0.3-0.9-0.4c-0.3-0.1-0.7-0.1-1-0.1c-0.6,0-1.1,0.1-1.6,0.3c-0.5,0.2-0.9,0.5-1.3,0.9
	c-0.4,0.4-0.7,0.9-0.9,1.4c-0.2,0.6-0.3,1.2-0.3,1.8c0,0.7,0.1,1.3,0.3,1.8c0.2,0.5,0.5,1,0.9,1.4c0.4,0.4,0.8,0.7,1.3,0.9
	c0.5,0.2,1,0.3,1.6,0.3c0.3,0,0.7,0,1-0.1c0.3-0.1,0.6-0.2,0.9-0.4c0.3-0.2,0.6-0.4,0.8-0.6c0.3-0.2,0.5-0.5,0.7-0.8l-1.5-1.6
	c-0.1,0.2-0.2,0.4-0.3,0.5c-0.1,0.2-0.3,0.3-0.4,0.4c-0.2,0.1-0.3,0.2-0.5,0.2c-0.2,0.1-0.4,0.1-0.6,0.1
	C151.1,66.7,151,66.7,150.9,66.7z M151.5,62.1c0.1,0,0.2,0,0.3,0.1l-2.4,3.4c0-0.1-0.1-0.2-0.1-0.3c0-0.1,0-0.2-0.1-0.3
	c0-0.1,0-0.2,0-0.3c0-0.1,0-0.2,0-0.3c0-0.4,0-0.7,0.2-1c0.1-0.3,0.2-0.5,0.4-0.7c0.2-0.2,0.4-0.4,0.6-0.5c0.3-0.1,0.5-0.2,0.8-0.2
	C151.3,62.1,151.4,62.1,151.5,62.1z M160.8,68.2c0.2-0.1,0.4-0.3,0.5-0.5l0.7,1h0.5v-8.5h-2.1v4.7c0,0.2,0,0.5-0.1,0.7
	c-0.1,0.2-0.2,0.4-0.3,0.6c-0.1,0.2-0.3,0.3-0.5,0.4c-0.2,0.1-0.4,0.2-0.6,0.2c-0.2,0-0.4,0-0.6-0.1c-0.2-0.1-0.4-0.2-0.5-0.4
	c-0.1-0.2-0.3-0.3-0.3-0.6c-0.1-0.2-0.1-0.5-0.1-0.8v-4.7h-2.1v4.7c0,0.6,0.1,1.2,0.3,1.7c0.2,0.5,0.5,0.9,0.8,1.2
	c0.3,0.3,0.7,0.6,1.2,0.8c0.4,0.2,0.9,0.3,1.4,0.3c0.2,0,0.5,0,0.7-0.1c0.2-0.1,0.4-0.1,0.6-0.2C160.5,68.4,160.7,68.3,160.8,68.2z
	 M165.9,72h-2.1V60.2h0.5l0.8,1c0.2-0.2,0.4-0.4,0.6-0.5c0.2-0.2,0.5-0.3,0.7-0.4c0.2-0.1,0.5-0.2,0.7-0.3c0.3-0.1,0.5-0.1,0.8-0.1
	c0.6,0,1.1,0.1,1.6,0.3c0.5,0.2,0.9,0.5,1.3,0.9c0.4,0.4,0.7,0.9,0.9,1.4c0.2,0.5,0.3,1.2,0.3,1.8c0,0.7-0.1,1.3-0.3,1.9
	c-0.2,0.6-0.5,1-0.9,1.4c-0.4,0.4-0.8,0.7-1.3,0.9c-0.5,0.2-1,0.3-1.6,0.3c-0.2,0-0.4,0-0.6-0.1c-0.2,0-0.4-0.1-0.5-0.2
	c-0.2-0.1-0.3-0.2-0.5-0.2c-0.2-0.1-0.3-0.2-0.5-0.3L165.9,72L165.9,72z M170.1,64.4c0-0.4-0.1-0.7-0.2-1s-0.3-0.5-0.4-0.7
	c-0.2-0.2-0.4-0.4-0.7-0.5c-0.3-0.1-0.5-0.2-0.8-0.2s-0.6,0.1-0.8,0.2c-0.2,0.1-0.5,0.3-0.6,0.5c-0.2,0.2-0.3,0.4-0.4,0.7
	c-0.1,0.3-0.2,0.6-0.2,1c0,0.3,0,0.7,0.2,1c0.1,0.3,0.3,0.5,0.4,0.7c0.2,0.2,0.4,0.4,0.6,0.5c0.3,0.1,0.5,0.2,0.8,0.2
	s0.6-0.1,0.8-0.2c0.3-0.1,0.5-0.3,0.7-0.5c0.2-0.2,0.3-0.4,0.4-0.7C170,65,170.1,64.7,170.1,64.4z M173,68.7h2.1v-8.5H173V68.7z
	 M184.8,69.8V72l1.1,0c0.6,0,1.1-0.1,1.6-0.3c0.5-0.2,0.9-0.5,1.3-0.9c0.4-0.4,0.7-0.9,0.9-1.4c0.2-0.5,0.3-1.1,0.3-1.7v-7.5h-2.1
	v4.7c0,0.2,0,0.5-0.1,0.7c-0.1,0.2-0.2,0.4-0.3,0.6c-0.1,0.2-0.3,0.3-0.5,0.4c-0.2,0.1-0.4,0.2-0.6,0.2c-0.2,0-0.4,0-0.6-0.1
	c-0.2-0.1-0.4-0.2-0.5-0.3c-0.1-0.2-0.3-0.3-0.3-0.6c-0.1-0.2-0.1-0.5-0.1-0.8v-4.7h-2.1v4.7c0,0.6,0.1,1.2,0.3,1.7
	c0.2,0.5,0.5,0.9,0.8,1.2c0.3,0.3,0.7,0.6,1.2,0.8c0.4,0.2,0.9,0.3,1.4,0.3c0.2,0,0.5-0.1,0.7-0.2c0.2-0.1,0.5-0.2,0.7-0.3
	c-0.1,0.2-0.2,0.4-0.3,0.5c-0.1,0.2-0.3,0.3-0.4,0.4c-0.2,0.1-0.3,0.2-0.5,0.3c-0.2,0.1-0.4,0.1-0.6,0.1L184.8,69.8z M175.1,57H173
	v2.2h2.1V57z"/>
</svg>
