<?xml version="1.0" encoding="utf-8"?>
<!-- Generator: Adobe Illustrator 25.2.3, SVG Export Plug-In . SVG Version: 6.00 Build 0)  -->
<svg version="1.1" id="Layer_1" xmlns="http://www.w3.org/2000/svg" xmlns:xlink="http://www.w3.org/1999/xlink" x="0px" y="0px"
	 viewBox="0 0 329 129" style="enable-background:new 0 0 329 129;" xml:space="preserve">
<style type="text/css">
	.st0{fill:url(#SVGID_1_);}
	.st1{fill:url(#SVGID_2_);}
	.st2{fill:url(#SVGID_3_);}
	.st3{fill:url(#SVGID_4_);}
	.st4{fill:#FFFFFF;}
	.st5{fill-rule:evenodd;clip-rule:evenodd;fill:#FFFFFF;}
</style>
<g>
	
		<linearGradient id="SVGID_1_" gradientUnits="userSpaceOnUse" x1="164.5" y1="346.5" x2="164.5" y2="218.5" gradientTransform="matrix(1 0 0 1 0 -218)">
		<stop  offset="0" style="stop-color:#5525D0"/>
		<stop  offset="1" style="stop-color:#BEBEFF"/>
	</linearGradient>
	<path class="st0" d="M164.5,128.5c-25,0-48.9-2.1-71.2-6.3l0.1-0.3c22.3,4.2,46.2,6.3,71.1,6.3c22.6,0,44.5-1.8,65-5.2l0,0.3
		C209,126.7,187.1,128.5,164.5,128.5z M233.9,122.5l0-0.3c6.1-1.1,12.1-2.4,17.8-3.8c1.9-0.4,3.7-0.9,5.5-1.4
		c21.5-5.8,39.4-13.5,51.7-22.5c12.7-9.2,19.4-19.6,19.4-30c0-10.5-6.7-20.8-19.4-30c-3-2.1-6.3-4.2-9.8-6.2l0.1-0.3
		c3.6,2,6.9,4.1,9.8,6.2c12.8,9.2,19.5,19.7,19.5,30.3s-6.8,21.1-19.5,30.3c-12.4,9-30.3,16.8-51.8,22.5c-1.8,0.5-3.6,1-5.5,1.4
		C246,120.1,240,121.4,233.9,122.5z M89,121.3c-4-0.8-7.9-1.7-11.7-2.6c-1.9-0.4-3.7-0.9-5.5-1.4c-21.5-5.8-39.4-13.5-51.8-22.5
		C7.3,85.6,0.5,75.1,0.5,64.5c0-10.4,6.5-20.6,18.7-29.7l0.1,0.3C7.2,44.1,0.8,54.3,0.8,64.5c0,10.5,6.7,20.8,19.4,30
		c12.3,8.9,30.2,16.7,51.7,22.5c1.8,0.5,3.6,1,5.5,1.4c3.8,0.9,7.7,1.8,11.7,2.6L89,121.3z M23.2,32.4l-0.1-0.3
		C35.2,24,52,17,71.8,11.7c1.8-0.5,3.6-1,5.5-1.4c23.7-5.8,51.1-9.2,79.1-9.7v0.3c-28,0.5-55.4,3.9-79,9.7c-1.8,0.4-3.7,0.9-5.5,1.4
		C52.1,17.3,35.3,24.4,23.2,32.4z M295,26.1c-10.6-5.5-23.4-10.2-37.9-14.1c-1.8-0.5-3.6-1-5.5-1.4c-26-6.4-56.2-9.8-87.2-9.8
		c-1.3,0-2.5,0-3.8,0V0.5c1.3,0,2.5,0,3.8,0c31,0,61.1,3.4,87.2,9.8c1.8,0.4,3.7,0.9,5.5,1.4c14.5,3.9,27.3,8.6,37.9,14.1L295,26.1z
		"/>
</g>
<g>
	
		<linearGradient id="SVGID_2_" gradientUnits="userSpaceOnUse" x1="164.5" y1="321.3753" x2="164.5" y2="243.6246" gradientTransform="matrix(1 0 0 1 0 -218)">
		<stop  offset="0" style="stop-color:#5525D0"/>
		<stop  offset="1" style="stop-color:#BEBEFF"/>
	</linearGradient>
	<path class="st1" d="M164.5,103.4c-20.1,0-39.6-2-56.6-5.8c-1.2-0.3-2.4-0.5-3.6-0.8C90.1,93.2,78.2,88.5,70,83
		c-8.5-5.6-12.9-12.1-12.9-18.5c0-4.5,2.1-8.9,6.2-13l0.2,0.3c-4,4.1-6.1,8.4-6.1,12.8c0,6.3,4.4,12.6,12.8,18.2
		c8.2,5.5,20,10.2,34.2,13.7c1.2,0.3,2.4,0.6,3.6,0.8c16.9,3.8,36.5,5.8,56.5,5.8c2.4,0,4.7,0,7.1-0.1v0.3
		C169.2,103.3,166.8,103.4,164.5,103.4z M176,103.2v-0.3c16.1-0.6,31.3-2.5,45.1-5.6c1.2-0.3,2.4-0.5,3.6-0.8
		c14.2-3.5,26.1-8.2,34.2-13.7c8.4-5.6,12.8-11.9,12.8-18.2s-4.4-12.6-12.8-18.2c-8.2-5.5-20-10.2-34.2-13.7
		c-1.2-0.3-2.4-0.6-3.6-0.8c-5.1-1.1-10.4-2.1-15.9-3l0-0.3c5.5,0.8,10.9,1.8,15.9,3c1.2,0.3,2.4,0.5,3.6,0.8
		c14.3,3.5,26.1,8.2,34.3,13.7c8.5,5.6,12.9,12.1,12.9,18.5S267.4,77.4,259,83c-8.2,5.5-20.1,10.2-34.3,13.7
		c-1.2,0.3-2.4,0.6-3.6,0.8C207.3,100.7,192.1,102.5,176,103.2z M67,48.6l-0.1-0.3c1-0.8,2.1-1.6,3.2-2.3
		c8.2-5.5,20.1-10.2,34.3-13.7c1.2-0.3,2.4-0.6,3.6-0.8c16.9-3.8,36.5-5.8,56.6-5.8c12.5,0,24.7,0.8,36.3,2.3l0,0.3
		c-11.6-1.5-23.8-2.3-36.3-2.3c-20,0-39.6,2-56.5,5.8c-1.2,0.3-2.4,0.5-3.6,0.8c-14.2,3.5-26.1,8.2-34.2,13.7C69,47,68,47.8,67,48.6
		z"/>
</g>
<g>
	
		<linearGradient id="SVGID_3_" gradientUnits="userSpaceOnUse" x1="164.5" y1="309.1525" x2="164.5" y2="255.8474" gradientTransform="matrix(1 0 0 1 0 -218)">
		<stop  offset="0" style="stop-color:#5525D0"/>
		<stop  offset="1" style="stop-color:#BEBEFF"/>
	</linearGradient>
	<path class="st2" d="M164.5,91.2c-14.8,0-29.2-1.4-41.8-3.9c-0.9-0.2-1.8-0.4-2.7-0.6c-10.7-2.4-19.7-5.6-25.9-9.4
		c-1.5-0.9-2.9-1.9-4-2.9l0.2-0.3c1.1,1,2.5,1.9,4,2.8c6.2,3.8,15.1,7,25.8,9.4c0.9,0.2,1.7,0.4,2.7,0.6c12.5,2.5,26.9,3.9,41.7,3.9
		s29.2-1.4,41.7-3.9c0.9-0.2,1.8-0.4,2.7-0.6c5.7-1.3,10.9-2.8,15.4-4.4l0.1,0.3c-4.5,1.7-9.7,3.2-15.4,4.5
		c-0.9,0.2-1.8,0.4-2.7,0.6C193.7,89.8,179.3,91.2,164.5,91.2z M228.5,80.5l-0.1-0.3c2.3-1,4.4-2.1,6.3-3.3c3.1-1.9,5.5-3.9,7.1-6
		c1.6-2.1,2.5-4.3,2.5-6.5s-0.8-4.3-2.5-6.5c-1.6-2.1-4-4.1-7.1-6c-6.2-3.8-15.1-7-25.8-9.4c-0.9-0.2-1.8-0.4-2.7-0.6
		c-12.5-2.5-27-3.9-41.7-3.9s-29.2,1.4-41.7,3.9c-0.9,0.2-1.8,0.4-2.7,0.6c-10.7,2.4-19.7,5.6-25.8,9.4c-3.1,1.9-5.5,3.9-7.1,6
		c-1.6,2.1-2.5,4.3-2.5,6.5c0,2.1,0.8,4.2,2.3,6.2L86.8,71c-1.6-2.1-2.4-4.2-2.4-6.5c0-2.3,0.8-4.5,2.5-6.7c1.6-2.1,4.1-4.1,7.2-6.1
		c6.2-3.8,15.1-7,25.9-9.4c0.9-0.2,1.8-0.4,2.7-0.6c12.6-2.5,27-3.9,41.8-3.9c14.8,0,29.2,1.4,41.8,3.9c0.9,0.2,1.7,0.4,2.7,0.6
		c10.7,2.4,19.7,5.6,25.9,9.4c3.1,1.9,5.6,4,7.2,6.1c1.7,2.2,2.5,4.4,2.5,6.7c0,2.3-0.8,4.5-2.5,6.7c-1.6,2.1-4.1,4.1-7.2,6.1
		C233,78.4,230.8,79.5,228.5,80.5z"/>
</g>
<g>
	
		<linearGradient id="SVGID_4_" gradientUnits="userSpaceOnUse" x1="164.5" y1="333.9376" x2="164.5" y2="231.0623" gradientTransform="matrix(1 0 0 1 0 -218)">
		<stop  offset="0" style="stop-color:#5525D0"/>
		<stop  offset="1" style="stop-color:#BEBEFF"/>
	</linearGradient>
	<path class="st3" d="M164.5,115.9c-25.6,0-50.5-2.7-72.1-7.8c-1.5-0.4-3.1-0.7-4.5-1.1c-8.7-2.2-16.8-4.9-23.9-7.9l0.1-0.3
		c7.1,3,15.2,5.6,23.9,7.8c1.5,0.4,3,0.7,4.5,1.1c21.6,5.1,46.5,7.8,72,7.8c11.8,0,23.5-0.6,34.8-1.7l0,0.3
		C188,115.4,176.3,115.9,164.5,115.9z M203.7,113.8l0-0.3c11.6-1.3,22.6-3.2,32.9-5.6c1.5-0.4,3.1-0.7,4.5-1.1
		c17.9-4.6,32.9-10.9,43.1-18.1c10.5-7.4,16.1-15.7,16.1-24.1s-5.6-16.7-16.1-24.1c-7.9-5.5-18.3-10.4-30.9-14.5l0.1-0.3
		c12.7,4.1,23.1,9,31,14.6c10.7,7.4,16.3,15.9,16.3,24.4s-5.6,17-16.3,24.4c-10.3,7.2-25.3,13.5-43.2,18.1c-1.5,0.4-3,0.7-4.5,1.1
		C226.3,110.6,215.2,112.5,203.7,113.8z M59.8,97.4c-5.8-2.6-10.9-5.5-15.1-8.5C34,81.5,28.4,73,28.4,64.5s5.6-17,16.3-24.4
		C55,32.9,69.9,26.6,87.9,22c1.5-0.4,3-0.7,4.5-1.1c5.2-1.3,10.8-2.3,16.4-3.3l0,0.3c-5.6,1-11.2,2.1-16.4,3.3
		c-1.5,0.4-3.1,0.7-4.5,1.1C70,26.9,55.1,33.2,44.8,40.4c-10.5,7.4-16.1,15.7-16.1,24.1s5.6,16.7,16.1,24.1c4.3,3,9.3,5.8,15.1,8.4
		L59.8,97.4z M249,24.5c-2.6-0.8-5.2-1.5-8-2.2c-1.5-0.4-3-0.7-4.5-1.1c-21.6-5.1-46.5-7.8-72-7.8c-17.7,0-35,1.3-51.3,3.8l0-0.3
		c16.3-2.5,33.6-3.8,51.3-3.8c25.6,0,50.5,2.7,72.1,7.8c1.5,0.4,3.1,0.7,4.5,1.1c2.7,0.7,5.4,1.5,8,2.2L249,24.5z"/>
</g>
<g>
	<g>
		<path class="st4" d="M146.8,64.8c0,0.7-0.1,1.3-0.3,1.8c-0.2,0.6-0.5,1-0.9,1.4c-0.4,0.4-0.8,0.7-1.3,0.9c-0.5,0.2-1,0.3-1.6,0.3
			s-1.1-0.1-1.6-0.4s-0.9-0.5-1.3-0.9c-0.4-0.4-0.7-0.9-0.9-1.4c-0.2-0.6-0.3-1.2-0.3-1.8v-6.7h0.5l0.7,1c0,0,0.4,0.6,0.6,0.8
			c0.2,0.2,0.6,0.9,0.6,0.9c0.2-0.1,0.3-0.2,0.5-0.3c0.2-0.1,0.4-0.1,0.6-0.2c0.2,0,0.4,0,0.6,0c0.6,0,1.1,0.1,1.6,0.4
			c0.5,0.2,0.9,0.5,1.3,0.9c0.4,0.4,0.7,0.9,0.9,1.4C146.7,63.6,146.8,64.2,146.8,64.8z M144.8,64.8c0-0.3,0-0.6-0.2-0.9
			c-0.1-0.3-0.3-0.5-0.4-0.8c-0.2-0.2-0.4-0.4-0.7-0.5c-0.2-0.1-0.5-0.2-0.8-0.2c-0.3,0-0.5,0-0.8,0.2c-0.2,0.1-0.4,0.3-0.7,0.5
			c-0.2,0.2-0.3,0.4-0.4,0.8c-0.1,0.3-0.2,0.6-0.2,0.9c0,0.3,0,0.6,0.2,0.9c0.1,0.3,0.3,0.5,0.4,0.7c0.2,0.2,0.4,0.4,0.7,0.5
			c0.3,0.1,0.5,0.2,0.8,0.2s0.5,0,0.8-0.2c0.3-0.1,0.5-0.3,0.7-0.5c0.2-0.2,0.3-0.4,0.4-0.7C144.7,65.5,144.8,65.2,144.8,64.8z"/>
	</g>
	<g>
		<path class="st5" d="M179.7,69.2h-2.1v-6.4h-1v-2.2h1v-0.4c0-0.5,0.1-1,0.3-1.5c0.2-0.4,0.4-0.9,0.8-1.2c0.3-0.4,0.7-0.6,1.2-0.8
			c0.4-0.2,0.9-0.3,1.4-0.3h1.6v2.2h-1.6c-0.2,0-0.4,0-0.6,0.1s-0.4,0.2-0.5,0.4c-0.1,0.1-0.2,0.3-0.3,0.5c-0.1,0.2-0.1,0.4-0.1,0.6
			v0.4h2.6v2.2h-2.6L179.7,69.2L179.7,69.2z M151.4,67.2c-0.1,0-0.2,0-0.2,0l3.9-4.9c-0.2-0.3-0.4-0.5-0.7-0.8
			c-0.3-0.2-0.5-0.4-0.8-0.6c-0.3-0.1-0.6-0.3-0.9-0.4s-0.7-0.1-1-0.1c-0.6,0-1.1,0.1-1.6,0.3c-0.5,0.2-0.9,0.5-1.3,0.9
			c-0.4,0.4-0.7,0.9-0.9,1.4c-0.2,0.6-0.3,1.2-0.3,1.9c0,0.7,0.1,1.2,0.3,1.8c0.2,0.5,0.5,1,0.9,1.4c0.4,0.4,0.8,0.7,1.3,0.9
			c0.5,0.2,1,0.3,1.6,0.3c0.3,0,0.7,0,1-0.1c0.3-0.1,0.6-0.2,0.9-0.4c0.3-0.1,0.6-0.4,0.8-0.6c0.3-0.2,0.5-0.5,0.7-0.8l-1.5-1.6
			c-0.1,0.2-0.2,0.4-0.3,0.5c-0.1,0.1-0.3,0.3-0.4,0.4s-0.3,0.2-0.5,0.3c-0.2,0-0.4,0.1-0.6,0.1C151.6,67.2,151.5,67.2,151.4,67.2z
			 M151.9,62.6c0.1,0,0.2,0,0.3,0.1l-2.4,3.4c0-0.1-0.1-0.1-0.1-0.3c0-0.1,0-0.2-0.1-0.3c0-0.1,0-0.2,0-0.3s0-0.2,0-0.3
			c0-0.4,0-0.7,0.2-1c0.1-0.3,0.2-0.5,0.4-0.8c0.2-0.2,0.4-0.4,0.6-0.4c0.3-0.1,0.5-0.2,0.8-0.2C151.8,62.6,151.9,62.6,151.9,62.6z
			 M161.3,68.7c0.2-0.1,0.4-0.3,0.5-0.4l0.7,1h0.5v-8.6H161v4.7c0,0.2,0,0.4-0.1,0.7c-0.1,0.2-0.2,0.4-0.3,0.6s-0.3,0.3-0.5,0.4
			c-0.2,0.1-0.4,0.1-0.6,0.1c-0.2,0-0.4,0-0.6-0.1c-0.2-0.1-0.4-0.2-0.5-0.4c-0.1-0.1-0.3-0.4-0.4-0.6s-0.1-0.5-0.1-0.8v-4.7h-2.1
			v4.7c0,0.6,0.1,1.2,0.3,1.6c0.2,0.5,0.4,0.9,0.8,1.2c0.3,0.4,0.7,0.6,1.2,0.8c0.4,0.2,0.9,0.3,1.4,0.3c0.2,0,0.4,0,0.7-0.1
			c0.2,0,0.4-0.1,0.6-0.2C161,68.9,161.1,68.8,161.3,68.7z M166.4,72.5h-2.1V60.7h0.5l0.8,1c0.2-0.2,0.4-0.4,0.6-0.5
			c0.2-0.2,0.4-0.3,0.7-0.4c0.2-0.1,0.5-0.2,0.8-0.3c0.3-0.1,0.5-0.1,0.8-0.1c0.6,0,1.1,0.1,1.6,0.3c0.5,0.2,0.9,0.5,1.3,0.9
			c0.4,0.4,0.7,0.9,0.9,1.4c0.2,0.5,0.3,1.2,0.3,1.8c0,0.7-0.1,1.3-0.3,1.9c-0.2,0.6-0.5,1-0.9,1.4c-0.4,0.4-0.8,0.7-1.3,0.9
			c-0.5,0.2-1,0.3-1.6,0.3c-0.2,0-0.4,0-0.5,0s-0.4-0.1-0.5-0.2s-0.4-0.1-0.5-0.3c-0.2-0.1-0.3-0.2-0.5-0.3L166.4,72.5L166.4,72.5z
			 M170.6,64.9c0-0.4,0-0.7-0.2-1c-0.1-0.3-0.3-0.5-0.4-0.7c-0.2-0.2-0.4-0.4-0.7-0.4s-0.5-0.1-0.8-0.1s-0.5,0-0.8,0.1
			c-0.2,0.1-0.4,0.3-0.6,0.4c-0.2,0.2-0.3,0.4-0.4,0.7c-0.1,0.3-0.2,0.6-0.2,1c0,0.4,0,0.7,0.2,0.9c0.1,0.3,0.3,0.5,0.4,0.8
			c0.2,0.2,0.4,0.4,0.6,0.5c0.3,0.1,0.5,0.2,0.8,0.2s0.5,0,0.8-0.2s0.5-0.3,0.7-0.5c0.2-0.2,0.3-0.4,0.4-0.8
			C170.5,65.5,170.6,65.2,170.6,64.9z M173.5,69.2h2.1v-8.6h-2.1V69.2z M185.3,70.3v2.2h1.1c0.6,0,1.1-0.1,1.6-0.4
			c0.5-0.2,0.9-0.5,1.3-0.9c0.4-0.4,0.7-0.8,0.9-1.4c0.2-0.5,0.3-1.1,0.3-1.7v-7.5h-2.1v4.7c0,0.2,0,0.4-0.1,0.7s-0.2,0.4-0.3,0.6
			s-0.3,0.3-0.5,0.4c-0.2,0.1-0.4,0.1-0.6,0.1c-0.2,0-0.4,0-0.6-0.1c-0.2-0.1-0.4-0.2-0.5-0.3c-0.1-0.1-0.3-0.4-0.4-0.6
			s-0.1-0.5-0.1-0.8v-4.7h-2.1v4.7c0,0.6,0.1,1.2,0.3,1.6c0.2,0.5,0.4,0.9,0.8,1.2c0.3,0.4,0.7,0.6,1.2,0.8c0.4,0.2,0.9,0.3,1.4,0.3
			c0.2,0,0.5,0,0.7-0.1s0.5-0.2,0.7-0.3c-0.1,0.2-0.2,0.4-0.3,0.5c-0.1,0.2-0.3,0.3-0.4,0.4c-0.2,0.1-0.3,0.2-0.5,0.3
			c-0.2,0.1-0.4,0.1-0.6,0.1L185.3,70.3z M175.6,57.5h-2.1v2.2h2.1V57.5z"/>
	</g>
</g>
</svg>
