<?xml version="1.0" encoding="utf-8"?>
<!-- Generator: Adobe Illustrator 25.2.3, SVG Export Plug-In . SVG Version: 6.00 Build 0)  -->
<svg version="1.1" id="Layer_1" xmlns="http://www.w3.org/2000/svg" xmlns:xlink="http://www.w3.org/1999/xlink" x="0px" y="0px"
	 viewBox="0 0 736.3 232.1" style="enable-background:new 0 0 736.3 232.1;" xml:space="preserve">
<style type="text/css">
	.st0{fill:url(#SVGID_1_);}
	.st1{fill:url(#SVGID_2_);}
	.st2{fill:url(#SVGID_3_);}
	.st3{fill:url(#SVGID_4_);}
	.st4{fill:#FFFFFF;}
	.st5{fill-rule:evenodd;clip-rule:evenodd;fill:#FFFFFF;}
</style>
<g>
	
		<linearGradient id="SVGID_1_" gradientUnits="userSpaceOnUse" x1="368.2" y1="-216.8244" x2="368.2" y2="15.1756" gradientTransform="matrix(1 0 0 -1 0 15.2756)">
		<stop  offset="0" style="stop-color:#5525D0"/>
		<stop  offset="1" style="stop-color:#BEBEFF"/>
	</linearGradient>
	<path class="st0" d="M368.3,232.1c-56,0-109.7-3.9-159.8-11.4l0.1-0.6c50,7.6,103.7,11.4,159.6,11.4c50.7,0,99.8-3.2,146-9.5
		l0.1,0.6C468.1,228.9,419,232.1,368.3,232.1z M524,221.2l-0.1-0.6c13.7-2,27.1-4.3,39.9-6.9c4.2-0.8,8.3-1.7,12.3-2.5
		c48.2-10.5,88.3-24.5,116-40.7c28.4-16.6,43.4-35.4,43.4-54.4s-15-37.7-43.4-54.4c-6.6-3.9-14-7.7-22-11.3l0.2-0.6
		c8,3.6,15.5,7.4,22.1,11.3c28.6,16.7,43.7,35.8,43.7,54.9s-15.1,38.2-43.7,54.9c-27.8,16.3-68,30.4-116.3,40.9
		c-4,0.9-8.2,1.7-12.3,2.5C551.1,216.9,537.7,219.2,524,221.2z M198.8,219.1c-8.9-1.5-17.8-3.1-26.3-4.7c-4.2-0.8-8.3-1.7-12.3-2.5
		C111.9,201.4,71.7,187.3,44,171c-28.6-16.8-43.7-35.8-43.7-55c0-18.8,14.5-37.4,42.1-53.9l0.3,0.6C15.4,79.1,0.9,97.6,0.9,116.1
		c0,19,15,37.7,43.4,54.4c27.7,16.2,67.8,30.3,116,40.7c4,0.9,8.2,1.7,12.3,2.5c8.5,1.7,17.4,3.3,26.2,4.7V219.1z M51.2,57.9
		L51,57.3C78.2,42.7,116,30,160.2,20.4c4-0.9,8.2-1.7,12.3-2.5C225.7,7.4,287.1,1.3,350,0.3v0.6c-62.9,0.9-124.3,7-177.4,17.5
		c-4.1,0.8-8.3,1.7-12.3,2.5C116.1,30.6,78.4,43.4,51.2,57.9z M661.2,46.6c-23.9-9.9-52.5-18.5-85-25.5c-4-0.9-8.2-1.7-12.3-2.5
		C505.4,6.9,437.7,0.7,368.3,0.7c-2.8,0-5.6,0-8.5,0V0.1c2.8,0,5.6,0,8.5,0c69.5,0,137.2,6.2,195.7,17.7c4.1,0.8,8.3,1.7,12.3,2.5
		c32.6,7.1,61.2,15.6,85.1,25.5L661.2,46.6z"/>
</g>
<g>
	
		<linearGradient id="SVGID_2_" gradientUnits="userSpaceOnUse" x1="368.35" y1="-171.3244" x2="368.35" y2="-30.3244" gradientTransform="matrix(1 0 0 -1 0 15.2756)">
		<stop  offset="0" style="stop-color:#5525D0"/>
		<stop  offset="1" style="stop-color:#BEBEFF"/>
	</linearGradient>
	<path class="st1" d="M368.3,186.6c-45,0-88.9-3.6-126.9-10.6c-2.7-0.5-5.4-1-8-1.5c-32-6.3-58.6-14.9-77-24.9
		c-19-10.2-29-21.8-29-33.5c0-8.1,4.7-16.1,13.9-23.6l0.4,0.5c-9.1,7.4-13.7,15.3-13.7,23.1c0,11.5,9.9,22.9,28.7,33
		c18.3,9.9,44.9,18.5,76.8,24.8c2.6,0.5,5.3,1,8,1.5c38,6.9,81.9,10.5,126.8,10.5c5.3,0,10.6-0.1,15.9-0.1v0.6
		C378.9,186.5,373.5,186.6,368.3,186.6z M394,186.2v-0.6c36.2-1.1,70.2-4.6,101.1-10.2c2.7-0.5,5.4-1,8-1.5
		c32-6.3,58.5-14.9,76.8-24.8c18.8-10.1,28.7-21.5,28.7-33s-9.9-22.9-28.7-33c-18.3-9.9-44.9-18.5-76.8-24.8c-2.6-0.5-5.3-1-8-1.5
		c-11.3-2-23.3-3.9-35.6-5.4l0.1-0.6c12.3,1.5,24.3,3.3,35.7,5.4c2.7,0.5,5.4,1,8,1.5c32,6.3,58.6,14.9,77,24.9
		c19,10.2,29,21.8,29,33.5s-10.1,23.3-29,33.5c-18.4,9.9-45,18.5-77,24.9c-2.6,0.5-5.3,1-8,1.5C464.3,181.6,430.2,185,394,186.2z
		 M149.4,87.2l-0.3-0.5c2.2-1.4,4.7-2.8,7.2-4.2c18.4-9.9,45-18.5,77-24.9c2.6-0.5,5.3-1,8-1.5c38-6.9,81.9-10.5,126.9-10.5
		c28,0,55.4,1.4,81.5,4.1l-0.1,0.6c-26.1-2.7-53.5-4.1-81.4-4.1c-45,0-88.9,3.6-126.8,10.5c-2.7,0.5-5.3,1-8,1.5
		c-32,6.3-58.5,14.9-76.8,24.8C154,84.5,151.6,85.9,149.4,87.2z"/>
</g>
<g>
	
		<linearGradient id="SVGID_3_" gradientUnits="userSpaceOnUse" x1="368.35" y1="-149.1244" x2="368.35" y2="-52.5244" gradientTransform="matrix(1 0 0 -1 0 15.2756)">
		<stop  offset="0" style="stop-color:#5525D0"/>
		<stop  offset="1" style="stop-color:#BEBEFF"/>
	</linearGradient>
	<path class="st2" d="M368.3,164.4c-33.2,0-65.6-2.5-93.7-7.1c-2-0.3-4-0.7-5.9-1c-24.1-4.3-44.2-10.2-58.1-17
		c-3.4-1.7-6.4-3.4-9.1-5.2l0.4-0.5c2.6,1.7,5.6,3.4,9,5.1c13.9,6.8,33.9,12.7,58,17c2,0.4,3.9,0.7,5.9,1c28,4.6,60.4,7.1,93.5,7.1
		s65.5-2.5,93.6-7.1c2-0.3,4-0.7,5.9-1c12.8-2.3,24.3-5,34.5-8.1l0.2,0.6c-10.2,3.1-21.8,5.8-34.6,8.1c-2,0.4-4,0.7-5.9,1
		C433.8,161.9,401.4,164.4,368.3,164.4z M511.9,145.1l-0.2-0.6c5.2-1.8,9.9-3.8,14.1-5.9c7-3.4,12.4-7.1,16-10.9
		c3.7-3.8,5.5-7.8,5.5-11.7c0-3.9-1.8-7.9-5.5-11.7c-3.6-3.8-9-7.4-16-10.9c-13.9-6.8-33.9-12.7-58-17c-2-0.4-4-0.7-5.9-1
		c-28.1-4.6-60.5-7.1-93.6-7.1s-65.5,2.5-93.6,7.1c-2,0.3-4,0.7-5.9,1c-24,4.3-44.1,10.2-58,17c-7,3.4-12.4,7.1-16,10.9
		c-3.7,3.8-5.5,7.8-5.5,11.7c0,3.8,1.7,7.6,5.1,11.3l-0.4,0.4c-3.5-3.8-5.3-7.7-5.3-11.7c0-4.1,1.9-8.2,5.7-12.1
		c3.7-3.8,9.1-7.5,16.2-11c13.9-6.8,34-12.7,58.1-17c2-0.4,4-0.7,5.9-1c28.2-4.6,60.6-7.1,93.8-7.1s65.6,2.5,93.7,7.1
		c2,0.3,3.9,0.7,5.9,1c24.1,4.3,44.2,10.2,58.1,17c7.1,3.4,12.5,7.2,16.2,11c3.8,3.9,5.7,8,5.7,12.1s-1.9,8.2-5.7,12.1
		c-3.7,3.8-9.1,7.5-16.2,11C521.9,141.3,517.1,143.3,511.9,145.1z"/>
</g>
<g>
	
		<linearGradient id="SVGID_4_" gradientUnits="userSpaceOnUse" x1="368.25" y1="-194.0244" x2="368.25" y2="-7.6244" gradientTransform="matrix(1 0 0 -1 0 15.2756)">
		<stop  offset="0" style="stop-color:#5525D0"/>
		<stop  offset="1" style="stop-color:#BEBEFF"/>
	</linearGradient>
	<path class="st3" d="M368.3,209.3c-57.4,0-113.3-4.9-161.8-14.2c-3.4-0.7-6.9-1.4-10.2-2c-19.6-4.1-37.7-8.9-53.7-14.3l0.2-0.6
		c16,5.4,34.1,10.2,53.7,14.2c3.3,0.7,6.7,1.4,10.2,2c48.4,9.2,104.3,14.2,161.7,14.2c26.4,0,52.7-1,78-3.1l0.1,0.6
		C421,208.3,394.7,209.3,368.3,209.3z M456.1,205.4l-0.1-0.6c25.9-2.4,50.8-5.8,73.8-10.2c3.4-0.7,6.9-1.4,10.2-2
		c40.2-8.4,73.7-19.7,96.8-32.7c23.7-13.4,36.2-28.5,36.2-43.7s-12.5-30.3-36.2-43.7c-17.7-10-41.1-18.9-69.4-26.3l0.2-0.6
		C596,53,619.4,62,637.1,72c23.9,13.5,36.5,28.8,36.5,44.2S661,147,637.1,160.4c-23.1,13-56.7,24.4-97,32.8c-3.3,0.7-6.7,1.4-10.2,2
		C507,199.6,482.1,203,456.1,205.4z M133.3,175.7c-12.9-4.7-24.3-9.9-33.9-15.3c-23.9-13.5-36.5-28.8-36.5-44.2S75.5,85.4,99.4,72
		c23.1-13,56.7-24.4,97-32.8c3.3-0.7,6.7-1.4,10.2-2c11.8-2.3,24.2-4.2,36.8-6l0.1,0.6c-12.6,1.7-25,3.8-36.8,6
		c-3.4,0.7-6.9,1.4-10.2,2c-40.2,8.4-73.7,19.7-96.8,32.7C76,85.8,63.5,100.8,63.5,116s12.5,30.3,36.2,43.7
		c9.6,5.4,20.9,10.5,33.9,15.3L133.3,175.7z M557.9,43.7c-5.8-1.4-11.8-2.8-17.8-4c-3.3-0.7-6.7-1.4-10.2-2
		c-48.4-9.2-104.3-14.2-161.7-14.2c-39.8,0-78.6,2.3-115.1,6.8l-0.1-0.6c36.6-4.5,75.3-6.8,115.2-6.8c57.4,0,113.3,4.9,161.8,14.2
		c3.4,0.7,6.9,1.4,10.2,2c6.1,1.3,12.1,2.6,17.8,4L557.9,43.7z"/>
</g>
<g>
	<g>
		<path class="st4" d="M341.8,116.9c0,1-0.1,1.9-0.5,2.7c-0.3,0.9-0.7,1.5-1.3,2.1c-0.5,0.6-1.2,1.1-2,1.4c-0.7,0.3-1.5,0.5-2.4,0.5
			s-1.7-0.2-2.4-0.5c-0.7-0.3-1.4-0.8-2-1.4c-0.5-0.6-1-1.3-1.3-2.1c-0.3-0.9-0.5-1.7-0.5-2.7v-10.1h0.8l1.1,1.5
			c0,0,0.6,0.9,0.9,1.2c0.3,0.3,0.9,1.3,0.9,1.3c0.3-0.2,0.5-0.3,0.8-0.5c0.3-0.1,0.6-0.2,0.9-0.3c0.3-0.1,0.6-0.1,0.9-0.1
			c0.9,0,1.7,0.2,2.4,0.5c0.7,0.3,1.4,0.8,2,1.4c0.5,0.6,1,1.3,1.3,2.1C341.6,115.1,341.8,116,341.8,116.9z M338.7,116.9
			c0-0.5-0.1-0.9-0.3-1.4c-0.1-0.5-0.4-0.8-0.7-1.1c-0.3-0.3-0.6-0.5-1-0.7c-0.3-0.2-0.7-0.3-1.2-0.3c-0.4,0-0.8,0.1-1.2,0.3
			c-0.3,0.2-0.7,0.5-1,0.8s-0.5,0.7-0.7,1.1c-0.1,0.4-0.3,0.9-0.3,1.3s0.1,0.9,0.3,1.4c0.1,0.4,0.4,0.8,0.7,1.1
			c0.3,0.3,0.6,0.5,1,0.7s0.8,0.3,1.2,0.3s0.8-0.1,1.2-0.3c0.4-0.2,0.7-0.5,1-0.7c0.3-0.3,0.5-0.7,0.7-1.1
			C338.5,117.9,338.7,117.5,338.7,116.9z"/>
	</g>
	<g>
		<path class="st5" d="M391.1,123.5H388V114h-1.5v-3.3h1.5v-0.6c0-0.8,0.1-1.5,0.4-2.2s0.7-1.3,1.1-1.8c0.5-0.5,1.1-0.9,1.7-1.2
			c0.7-0.3,1.3-0.5,2.1-0.5h2.4v3.3h-2.4c-0.3,0-0.7,0.1-0.9,0.2s-0.5,0.3-0.7,0.5s-0.3,0.5-0.5,0.8c-0.1,0.3-0.2,0.6-0.2,0.9v0.6
			h3.8v3.3H391L391.1,123.5L391.1,123.5z M348.6,120.5c-0.1,0-0.3-0.1-0.3-0.1l5.9-7.4c-0.3-0.5-0.6-0.8-1-1.1
			c-0.4-0.3-0.8-0.7-1.2-0.9c-0.4-0.2-0.9-0.4-1.3-0.5s-1-0.2-1.5-0.2c-0.9,0-1.7,0.2-2.4,0.5c-0.7,0.3-1.4,0.8-2,1.4
			c-0.5,0.6-1,1.3-1.3,2.1c-0.3,0.9-0.5,1.7-0.5,2.8c0,1,0.1,1.9,0.5,2.7c0.3,0.8,0.7,1.5,1.3,2.1c0.6,0.6,1.2,1.1,2,1.4
			s1.5,0.5,2.4,0.5c0.5,0,1-0.1,1.5-0.2s0.9-0.3,1.3-0.5c0.5-0.2,0.9-0.5,1.2-0.9c0.4-0.3,0.7-0.7,1-1.1l-2.3-2.4
			c-0.1,0.3-0.3,0.5-0.5,0.8c-0.2,0.2-0.4,0.5-0.7,0.6c-0.3,0.1-0.5,0.3-0.8,0.4s-0.6,0.1-0.9,0.1
			C348.9,120.5,348.8,120.5,348.6,120.5z M349.4,113.5c0.1,0,0.3,0.1,0.4,0.1l-3.6,5.1c-0.1-0.1-0.1-0.2-0.1-0.4
			c-0.1-0.1-0.1-0.3-0.1-0.5c0-0.1-0.1-0.3-0.1-0.5c0-0.1,0-0.3,0-0.4c0-0.5,0.1-1,0.3-1.5c0.1-0.5,0.3-0.8,0.7-1.1
			c0.3-0.3,0.6-0.5,0.9-0.7c0.4-0.2,0.8-0.3,1.2-0.3C349.2,113.5,349.3,113.5,349.4,113.5z M363.5,122.7c0.3-0.2,0.5-0.5,0.8-0.7
			l1,1.5h0.7v-12.8h-3.1v7.1c0,0.3-0.1,0.7-0.2,1s-0.3,0.6-0.5,0.9s-0.5,0.5-0.7,0.6c-0.3,0.1-0.6,0.2-0.9,0.2s-0.6-0.1-0.9-0.2
			s-0.5-0.3-0.7-0.5s-0.4-0.5-0.5-0.9c-0.1-0.3-0.2-0.7-0.2-1.1v-7.1h-3.1v7.1c0,0.9,0.1,1.7,0.4,2.5c0.3,0.7,0.7,1.3,1.1,1.9
			c0.5,0.5,1.1,0.9,1.7,1.2c0.7,0.3,1.3,0.4,2.1,0.4c0.3,0,0.7-0.1,1-0.1c0.3-0.1,0.7-0.2,0.9-0.3
			C362.9,123.1,363.2,122.9,363.5,122.7z M371.1,128.4H368v-17.7h0.7l1.2,1.5c0.3-0.3,0.6-0.5,0.9-0.8s0.7-0.5,1-0.7
			s0.7-0.3,1.1-0.5c0.4-0.1,0.8-0.1,1.1-0.1c0.9,0,1.7,0.2,2.4,0.5c0.7,0.3,1.4,0.8,2,1.3c0.6,0.6,1,1.3,1.3,2.1
			c0.3,0.8,0.5,1.7,0.5,2.7c0,1.1-0.1,2-0.5,2.9c-0.3,0.9-0.7,1.5-1.3,2.1c-0.5,0.6-1.2,1-2,1.3c-0.7,0.3-1.5,0.5-2.4,0.5
			c-0.3,0-0.5,0-0.8-0.1s-0.5-0.1-0.8-0.3c-0.3-0.1-0.5-0.2-0.7-0.4c-0.3-0.1-0.5-0.3-0.7-0.4L371.1,128.4L371.1,128.4z M377.3,117
			c0-0.5-0.1-1-0.3-1.5c-0.1-0.5-0.4-0.8-0.7-1.1c-0.3-0.3-0.6-0.5-1-0.7c-0.4-0.1-0.8-0.2-1.2-0.2c-0.4,0-0.8,0.1-1.2,0.2
			c-0.3,0.1-0.7,0.4-0.9,0.7c-0.3,0.3-0.5,0.7-0.7,1.1c-0.1,0.5-0.3,0.9-0.3,1.5s0.1,1,0.3,1.4c0.1,0.5,0.4,0.8,0.7,1.1
			c0.3,0.3,0.6,0.5,0.9,0.7c0.4,0.2,0.8,0.3,1.2,0.3c0.4,0,0.8-0.1,1.2-0.3s0.7-0.4,1-0.7c0.3-0.3,0.5-0.7,0.7-1.1
			C377.3,118,377.3,117.5,377.3,117z M381.8,123.5h3.2v-12.8h-3.2V123.5z M399.5,125.1v3.3h1.6c0.9,0,1.7-0.2,2.4-0.5
			c0.7-0.3,1.4-0.8,2-1.4c0.5-0.6,1-1.3,1.3-2.1c0.3-0.8,0.5-1.6,0.5-2.5v-11.2h-3.2v7.1c0,0.3-0.1,0.7-0.2,1s-0.3,0.6-0.5,0.9
			s-0.5,0.5-0.7,0.6c-0.3,0.1-0.6,0.2-0.9,0.2s-0.6-0.1-0.9-0.2s-0.5-0.3-0.7-0.5s-0.4-0.5-0.5-0.9s-0.2-0.7-0.2-1.2v-7.1h-3.1v7.1
			c0,0.9,0.1,1.7,0.4,2.5c0.3,0.7,0.7,1.3,1.1,1.9s1.1,0.9,1.7,1.2c0.7,0.3,1.3,0.4,2.1,0.4c0.3,0,0.7-0.1,1.1-0.2
			c0.3-0.1,0.7-0.3,1.1-0.5c-0.1,0.3-0.3,0.6-0.5,0.8c-0.2,0.3-0.4,0.5-0.6,0.7c-0.3,0.2-0.5,0.3-0.7,0.5c-0.3,0.1-0.6,0.1-0.9,0.1
			H399.5z M384.9,105.9h-3.2v3.3h3.2V105.9z"/>
	</g>
</g>
</svg>
