<?xml version="1.0" encoding="utf-8"?>
<!-- Generator: Adobe Illustrator 25.2.3, SVG Export Plug-In . SVG Version: 6.00 Build 0)  -->
<svg version="1.1" id="Layer_1" xmlns="http://www.w3.org/2000/svg" xmlns:xlink="http://www.w3.org/1999/xlink" x="0px" y="0px"
	 viewBox="0 0 327 127" style="enable-background:new 0 0 327 127;" xml:space="preserve">
<style type="text/css">
	.st0{fill:url(#SVGID_1_);}
	.st1{fill:url(#SVGID_2_);}
	.st2{fill:url(#SVGID_3_);}
	.st3{fill:url(#SVGID_4_);}
	.st4{fill:#FFFFFF;}
	.st5{fill-rule:evenodd;clip-rule:evenodd;fill:#FFFFFF;}
</style>
<g>
	<g>
		
			<linearGradient id="SVGID_1_" gradientUnits="userSpaceOnUse" x1="163.5" y1="3.3206" x2="163.5" y2="130.3206" gradientTransform="matrix(1 0 0 -1 0 130.3206)">
			<stop  offset="0" style="stop-color:#5525D0"/>
			<stop  offset="1" style="stop-color:#BEBEFF"/>
		</linearGradient>
		<path class="st0" d="M163.5,127c-13,0-26-0.6-38.5-1.8l0-0.3c12.5,1.2,25.5,1.8,38.5,1.8c10.9,0,21.7-0.4,32.3-1.2l0,0.3
			C185.3,126.6,174.4,127,163.5,127z M199.4,125.5l0-0.3c18.1-1.6,35.3-4.3,51.1-8.2c1.8-0.5,3.7-0.9,5.5-1.4
			c21.4-5.7,39.3-13.4,51.5-22.3c3.2-2.3,6.1-4.8,8.6-7.2l0.2,0.3c-2.5,2.5-5.3,4.9-8.6,7.3c-12.3,8.9-30.2,16.6-51.6,22.3
			c-1.8,0.5-3.6,0.9-5.5,1.4C234.7,121.1,217.5,123.9,199.4,125.5z M121.5,124.9c-15.9-1.6-31-4.2-44.9-7.6
			c-1.9-0.5-3.7-0.9-5.5-1.4c-6.8-1.8-13.3-3.8-19.3-6l0.1-0.3c6,2.2,12.5,4.2,19.3,6c1.8,0.5,3.6,0.9,5.5,1.4
			c13.9,3.4,29,6,44.9,7.6L121.5,124.9z M48.4,108.6c-11.5-4.4-21.3-9.5-28.9-15C6.7,84.4,0,74,0,63.5c0-2.8,0.5-5.7,1.5-8.5
			l0.3,0.1c-1,2.8-1.4,5.6-1.4,8.4c0,10.4,6.7,20.7,19.3,29.8c7.7,5.5,17.4,10.6,28.9,15L48.4,108.6z M318.8,83.4l-0.2-0.2
			c5.4-6.3,8.1-12.9,8.1-19.6c0-10.4-6.7-20.7-19.3-29.8c-5.1-3.7-11.2-7.2-18.1-10.4l0.1-0.3c6.9,3.2,13,6.8,18.1,10.4
			C320.3,42.6,327,53,327,63.5C327,70.3,324.2,77,318.8,83.4z M3.3,51.3l-0.2-0.2c3.1-6.2,8.6-12.1,16.3-17.7
			c11.2-8.1,27-15.2,45.9-20.7l0.1,0.3c-18.9,5.5-34.7,12.7-45.9,20.7C11.9,39.3,6.5,45.2,3.3,51.3z M286,21.8
			c-8.9-3.9-19-7.4-30.1-10.4c-1.8-0.5-3.6-0.9-5.5-1.4c-10.5-2.6-21.8-4.7-33.5-6.3l0-0.3c11.7,1.6,23,3.7,33.6,6.3
			c1.8,0.4,3.7,0.9,5.5,1.4c11.1,3,21.2,6.5,30.2,10.4L286,21.8z M68.9,12.1l-0.1-0.3c0.7-0.2,1.5-0.4,2.2-0.6
			c1.8-0.5,3.6-0.9,5.5-1.4C95.7,5,116.7,2,139,0.7l0,0.3c-22.3,1.3-43.3,4.3-62.5,9c-1.8,0.4-3.7,0.9-5.5,1.4
			C70.4,11.6,69.6,11.8,68.9,12.1z M213.3,3.3c-16.1-2-32.8-3-49.8-3c-7,0-14,0.2-20.9,0.5l0-0.3c6.9-0.3,13.9-0.5,20.9-0.5
			c17,0,33.8,1,49.9,3L213.3,3.3z"/>
	</g>
	<g>
		
			<linearGradient id="SVGID_2_" gradientUnits="userSpaceOnUse" x1="163.5" y1="28.249" x2="163.5" y2="105.3922" gradientTransform="matrix(1 0 0 -1 0 130.3206)">
			<stop  offset="0" style="stop-color:#5525D0"/>
			<stop  offset="1" style="stop-color:#BEBEFF"/>
		</linearGradient>
		<path class="st1" d="M163.4,102.1c-1.6,0-3.3,0-4.9,0l0-0.3c1.6,0,3.3,0,4.9,0c0,0,0,0,0.1,0c20,0,39.5-2,56.4-5.8
			c1.2-0.3,2.4-0.5,3.6-0.8c14.2-3.5,26-8.1,34.1-13.6c8.3-5.5,12.8-11.8,12.8-18.1s-4.4-12.5-12.8-18.1c-4.2-2.8-9.3-5.3-15.2-7.7
			l0.1-0.3c5.9,2.3,11,4.9,15.2,7.7c8.4,5.6,12.9,12,12.9,18.4c0,6.4-4.5,12.8-12.9,18.4c-8.2,5.4-20,10.1-34.2,13.6
			c-1.2,0.3-2.4,0.6-3.6,0.8C203,100.1,183.5,102.1,163.4,102.1C163.5,102.1,163.5,102.1,163.4,102.1z M154.2,101.9
			c-16.6-0.5-32.9-2.5-47.1-5.6c-1.2-0.3-2.4-0.5-3.6-0.8C89.3,92,77.5,87.3,69.3,81.9c-3.4-2.2-6.1-4.6-8.2-7.1l0.2-0.2
			c2.1,2.4,4.8,4.8,8.2,7c8.2,5.4,20,10.1,34.1,13.6c1.2,0.3,2.4,0.6,3.6,0.8c14.2,3.2,30.5,5.1,47.1,5.6L154.2,101.9z M58.3,70.7
			c-1.2-2.4-1.9-4.8-1.9-7.2c0-6.4,4.5-12.8,12.9-18.4c8.2-5.4,20-10.1,34.2-13.6c1.2-0.3,2.4-0.6,3.6-0.8
			c9.5-2.1,19.8-3.7,30.6-4.6l0,0.3c-10.8,1-21.1,2.5-30.5,4.6c-1.2,0.3-2.4,0.5-3.6,0.8c-14.2,3.5-26,8.1-34.1,13.6
			C61.1,51,56.7,57.2,56.7,63.5c0,2.3,0.6,4.7,1.8,7L58.3,70.7z M238.2,36.2c-4.6-1.6-9.5-3.1-14.8-4.4c-1.2-0.3-2.4-0.6-3.6-0.8
			c-16.9-3.8-36.4-5.8-56.4-5.8c-7.2,0-14.5,0.3-21.5,0.8l0-0.3c7-0.5,14.3-0.8,21.5-0.8c20,0,39.5,2,56.4,5.8
			c1.2,0.3,2.4,0.5,3.6,0.8c5.3,1.3,10.3,2.8,14.8,4.4L238.2,36.2z"/>
	</g>
	<g>
		
			<linearGradient id="SVGID_3_" gradientUnits="userSpaceOnUse" x1="163.5439" y1="40.3763" x2="163.5439" y2="93.2649" gradientTransform="matrix(1 0 0 -1 0 130.3206)">
			<stop  offset="0" style="stop-color:#5525D0"/>
			<stop  offset="1" style="stop-color:#BEBEFF"/>
		</linearGradient>
		<path class="st2" d="M163.5,89.9c-4.2,0-8.5-0.1-12.6-0.3l0-0.3c4.1,0.2,8.4,0.3,12.6,0.3c14.7,0,29.1-1.3,41.6-3.9
			c0.9-0.2,1.7-0.4,2.6-0.6c10.7-2.4,19.6-5.6,25.7-9.3c3.1-1.9,5.5-3.9,7.1-6c1.6-2.1,2.5-4.2,2.5-6.4s-0.8-4.3-2.5-6.4
			c-1.6-2.1-4-4.1-7.1-6c-2.4-1.5-5.3-2.9-8.5-4.1l0.1-0.3c3.2,1.3,6.1,2.7,8.5,4.2c3.1,1.9,5.6,3.9,7.2,6c1.7,2.2,2.5,4.4,2.5,6.6
			c0,2.3-0.9,4.5-2.5,6.6c-1.6,2.1-4.1,4.1-7.2,6c-6.2,3.7-15.1,7-25.8,9.3c-0.9,0.2-1.8,0.4-2.6,0.6
			C192.6,88.6,178.2,89.9,163.5,89.9z M146.5,89.3c-8.7-0.6-17-1.7-24.7-3.3c-0.9-0.2-1.8-0.4-2.6-0.6c-10.7-2.4-19.6-5.6-25.8-9.3
			c-3.1-1.9-5.6-3.9-7.2-6c-1.4-1.8-2.2-3.6-2.5-5.4l0.3-0.1c0.2,1.8,1,3.5,2.4,5.2c1.6,2.1,4,4.1,7.1,6c6.1,3.7,15.1,6.9,25.7,9.3
			c0.9,0.2,1.8,0.4,2.6,0.6c7.6,1.5,15.9,2.7,24.7,3.3L146.5,89.3z M84.8,59.6l-0.2-0.2c0.4-0.9,0.9-1.7,1.6-2.6
			c1.6-2.1,4.1-4.1,7.2-6c6.2-3.7,15.1-7,25.8-9.3c0.9-0.2,1.9-0.4,2.7-0.6c8.4-1.7,17.5-2.9,27.1-3.4l0,0.3
			c-9.6,0.6-18.7,1.7-27,3.4c-0.8,0.2-1.7,0.4-2.7,0.6c-10.7,2.4-19.6,5.6-25.7,9.3c-3.1,1.9-5.5,3.9-7.1,6
			C85.7,57.9,85.2,58.8,84.8,59.6z M220.8,45.4c-4-1.4-8.4-2.6-13.1-3.6c-0.9-0.2-1.8-0.4-2.6-0.6c-12.5-2.5-26.9-3.9-41.6-3.9
			c-3.4,0-6.9,0.1-10.2,0.2l0-0.3c3.4-0.1,6.8-0.2,10.2-0.2c14.7,0,29.1,1.3,41.6,3.9c0.9,0.2,1.8,0.4,2.6,0.6
			c4.7,1,9.1,2.3,13.1,3.6L220.8,45.4z"/>
	</g>
	<g>
		
			<linearGradient id="SVGID_4_" gradientUnits="userSpaceOnUse" x1="163.5" y1="15.7848" x2="163.5" y2="117.8564" gradientTransform="matrix(1 0 0 -1 0 130.3206)">
			<stop  offset="0" style="stop-color:#5525D0"/>
			<stop  offset="1" style="stop-color:#BEBEFF"/>
		</linearGradient>
		<path class="st3" d="M163.5,114.5c-10.4,0-20.7-0.4-30.7-1.3l0-0.3c10,0.9,20.3,1.3,30.6,1.3c8.9,0,17.8-0.3,26.5-1l0,0.3
			C181.4,114.2,172.4,114.5,163.5,114.5z M194.4,113.2l0-0.3c14.5-1.3,28.3-3.4,41-6.4c1.5-0.4,3-0.7,4.5-1.1
			c17.9-4.6,32.7-10.8,43-17.9c2.2-1.5,4.2-3.1,5.9-4.7l0.2,0.3c-1.8,1.6-3.8,3.2-5.9,4.7c-10.3,7.2-25.2,13.4-43.1,18
			c-1.5,0.4-3,0.8-4.5,1.1C222.7,109.8,208.9,111.9,194.4,113.2z M128.5,112.8c-13-1.3-25.4-3.3-36.9-6c-1.5-0.4-3-0.7-4.5-1.1
			c-5.3-1.3-10.3-2.9-15-4.5l0.1-0.3c4.7,1.6,9.7,3.1,15,4.5c1.5,0.4,3,0.8,4.5,1.1c11.4,2.7,23.8,4.7,36.8,6L128.5,112.8z
			 M67.9,99.7c-9.5-3.5-17.5-7.6-23.9-12C33.4,80.3,27.8,72,27.8,63.5c0-2,0.3-4,0.9-6l0.3,0.1c-0.6,2-0.9,3.9-0.9,5.9
			c0,8.3,5.6,16.6,16.1,23.9c6.3,4.4,14.3,8.4,23.8,12L67.9,99.7z M292.3,79.6l-0.2-0.2c4.5-5.1,6.8-10.5,6.8-15.9
			c0-8.3-5.6-16.6-16.1-23.9c-4-2.8-8.8-5.5-14.2-8l0.1-0.3c5.4,2.5,10.2,5.2,14.3,8c10.6,7.4,16.2,15.8,16.2,24.2
			C299.2,69,296.9,74.4,292.3,79.6z M31.1,52.9l-0.2-0.2C33.5,48,38,43.5,44,39.3c9.2-6.4,22.2-12.1,37.7-16.5l0.1,0.3
			c-15.4,4.4-28.4,10.1-37.6,16.5C38.1,43.8,33.7,48.3,31.1,52.9z M264.5,29.8c-7.3-3.1-15.6-5.8-24.7-8.1c-1.5-0.4-3-0.8-4.5-1.1
			c-8.4-2-17.4-3.6-26.7-4.8l0-0.3c9.3,1.2,18.3,2.9,26.8,4.9c1.5,0.4,3,0.7,4.5,1.1c9.1,2.3,17.4,5.1,24.7,8.1L264.5,29.8z
			 M86,21.9L86,21.6c0.4-0.1,0.8-0.2,1.1-0.3c1.5-0.4,3-0.8,4.5-1.1c15.7-3.7,32.9-6.1,51.1-7.1l0,0.3c-18.2,1.1-35.4,3.5-51.1,7.1
			c-1.5,0.4-3,0.7-4.5,1.1C86.8,21.7,86.4,21.8,86,21.9z M204.2,15.1c-13.1-1.6-26.8-2.3-40.7-2.3c-5.5,0-11,0.1-16.4,0.4l0-0.3
			c5.4-0.2,10.9-0.4,16.4-0.4c13.9,0,27.6,0.8,40.8,2.3L204.2,15.1z"/>
	</g>
	<g>
		<path class="st4" d="M145.8,64.4c0,0.7-0.1,1.3-0.3,1.8c-0.2,0.6-0.5,1-0.9,1.4c-0.4,0.4-0.8,0.7-1.3,0.9c-0.5,0.2-1,0.3-1.6,0.3
			c-0.6,0-1.1-0.1-1.6-0.3c-0.5-0.2-0.9-0.5-1.3-0.9c-0.4-0.4-0.7-0.9-0.9-1.4c-0.2-0.6-0.3-1.2-0.3-1.8v-6.7h0.5l0.7,1
			c0,0,0.4,0.6,0.6,0.8c0.2,0.2,0.6,0.9,0.6,0.9c0.2-0.1,0.3-0.2,0.5-0.3c0.2-0.1,0.4-0.1,0.6-0.2c0.2,0,0.4-0.1,0.6-0.1
			c0.6,0,1.1,0.1,1.6,0.3c0.5,0.2,0.9,0.5,1.3,0.9c0.4,0.4,0.7,0.9,0.9,1.4C145.7,63.1,145.8,63.7,145.8,64.4z M143.8,64.4
			c0-0.3-0.1-0.6-0.2-0.9c-0.1-0.3-0.3-0.5-0.4-0.7c-0.2-0.2-0.4-0.4-0.7-0.5c-0.2-0.1-0.5-0.2-0.8-0.2c-0.3,0-0.6,0.1-0.8,0.2
			c-0.2,0.1-0.5,0.3-0.7,0.5c-0.2,0.2-0.3,0.5-0.4,0.7c-0.1,0.3-0.2,0.6-0.2,0.9c0,0.3,0,0.6,0.2,0.9c0.1,0.3,0.3,0.5,0.4,0.7
			c0.2,0.2,0.4,0.4,0.7,0.5c0.3,0.1,0.5,0.2,0.8,0.2c0.3,0,0.6-0.1,0.8-0.2c0.3-0.1,0.5-0.3,0.7-0.5c0.2-0.2,0.3-0.5,0.4-0.7
			C143.7,65,143.8,64.7,143.8,64.4z"/>
	</g>
	<g>
		<path class="st5" d="M178.7,68.7h-2.1v-6.4h-1v-2.2h1v-0.4c0-0.5,0.1-1,0.3-1.5c0.2-0.5,0.5-0.9,0.8-1.2c0.3-0.3,0.7-0.6,1.2-0.8
			c0.4-0.2,0.9-0.3,1.4-0.3h1.6v2.2h-1.6c-0.2,0-0.4,0-0.6,0.1c-0.2,0.1-0.4,0.2-0.5,0.3c-0.1,0.1-0.2,0.3-0.3,0.5
			c-0.1,0.2-0.1,0.4-0.1,0.6v0.4h2.5v2.2h-2.5V68.7z M150.4,66.7c-0.1,0-0.2,0-0.2-0.1l3.9-4.9c-0.2-0.3-0.4-0.5-0.7-0.8
			c-0.3-0.2-0.5-0.4-0.8-0.6c-0.3-0.2-0.6-0.3-0.9-0.4c-0.3-0.1-0.7-0.1-1-0.1c-0.6,0-1.1,0.1-1.6,0.3c-0.5,0.2-0.9,0.5-1.3,0.9
			c-0.4,0.4-0.7,0.9-0.9,1.4c-0.2,0.6-0.3,1.2-0.3,1.8c0,0.7,0.1,1.3,0.3,1.8c0.2,0.5,0.5,1,0.9,1.4c0.4,0.4,0.8,0.7,1.3,0.9
			c0.5,0.2,1,0.3,1.6,0.3c0.3,0,0.7,0,1-0.1c0.3-0.1,0.6-0.2,0.9-0.4c0.3-0.2,0.6-0.4,0.8-0.6c0.3-0.2,0.5-0.5,0.7-0.8l-1.5-1.6
			c-0.1,0.2-0.2,0.4-0.3,0.5c-0.1,0.2-0.3,0.3-0.4,0.4c-0.2,0.1-0.3,0.2-0.5,0.2c-0.2,0.1-0.4,0.1-0.6,0.1
			C150.6,66.7,150.5,66.7,150.4,66.7z M151,62.1c0.1,0,0.2,0,0.3,0.1l-2.4,3.4c0-0.1-0.1-0.2-0.1-0.3c0-0.1,0-0.2-0.1-0.3
			c0-0.1,0-0.2,0-0.3c0-0.1,0-0.2,0-0.3c0-0.4,0-0.7,0.2-1c0.1-0.3,0.2-0.5,0.4-0.7c0.2-0.2,0.4-0.4,0.6-0.5
			c0.3-0.1,0.5-0.2,0.8-0.2C150.8,62.1,150.9,62.1,151,62.1z M160.3,68.2c0.2-0.1,0.4-0.3,0.5-0.5l0.7,1h0.5v-8.5H160v4.7
			c0,0.2,0,0.5-0.1,0.7c-0.1,0.2-0.2,0.4-0.3,0.6c-0.1,0.2-0.3,0.3-0.5,0.4c-0.2,0.1-0.4,0.2-0.6,0.2c-0.2,0-0.4,0-0.6-0.1
			c-0.2-0.1-0.4-0.2-0.5-0.4c-0.1-0.2-0.3-0.3-0.3-0.6c-0.1-0.2-0.1-0.5-0.1-0.8v-4.7h-2.1v4.7c0,0.6,0.1,1.2,0.3,1.7
			c0.2,0.5,0.5,0.9,0.8,1.2c0.3,0.3,0.7,0.6,1.2,0.8c0.4,0.2,0.9,0.3,1.4,0.3c0.2,0,0.5,0,0.7-0.1c0.2-0.1,0.4-0.1,0.6-0.2
			C160,68.4,160.2,68.3,160.3,68.2z M165.4,72h-2.1V60.2h0.5l0.8,1c0.2-0.2,0.4-0.4,0.6-0.5c0.2-0.2,0.5-0.3,0.7-0.4
			c0.2-0.1,0.5-0.2,0.7-0.3c0.3-0.1,0.5-0.1,0.8-0.1c0.6,0,1.1,0.1,1.6,0.3c0.5,0.2,0.9,0.5,1.3,0.9c0.4,0.4,0.7,0.9,0.9,1.4
			c0.2,0.5,0.3,1.2,0.3,1.8c0,0.7-0.1,1.3-0.3,1.9c-0.2,0.6-0.5,1-0.9,1.4c-0.4,0.4-0.8,0.7-1.3,0.9c-0.5,0.2-1,0.3-1.6,0.3
			c-0.2,0-0.4,0-0.6-0.1c-0.2,0-0.4-0.1-0.5-0.2c-0.2-0.1-0.3-0.2-0.5-0.2c-0.2-0.1-0.3-0.2-0.5-0.3L165.4,72L165.4,72z M169.6,64.4
			c0-0.4-0.1-0.7-0.2-1c-0.1-0.3-0.3-0.5-0.4-0.7c-0.2-0.2-0.4-0.4-0.7-0.5c-0.3-0.1-0.5-0.2-0.8-0.2s-0.6,0.1-0.8,0.2
			c-0.2,0.1-0.5,0.3-0.6,0.5c-0.2,0.2-0.3,0.4-0.4,0.7c-0.1,0.3-0.2,0.6-0.2,1c0,0.3,0,0.7,0.2,1c0.1,0.3,0.3,0.5,0.4,0.7
			c0.2,0.2,0.4,0.4,0.6,0.5c0.3,0.1,0.5,0.2,0.8,0.2s0.6-0.1,0.8-0.2s0.5-0.3,0.7-0.5c0.2-0.2,0.3-0.4,0.4-0.7
			C169.5,65,169.6,64.7,169.6,64.4z M172.5,68.7h2.1v-8.5h-2.1V68.7z M184.3,69.8V72l1.1,0c0.6,0,1.1-0.1,1.6-0.3
			c0.5-0.2,0.9-0.5,1.3-0.9c0.4-0.4,0.7-0.9,0.9-1.4c0.2-0.5,0.3-1.1,0.3-1.7v-7.5h-2.1v4.7c0,0.2,0,0.5-0.1,0.7
			c-0.1,0.2-0.2,0.4-0.3,0.6c-0.1,0.2-0.3,0.3-0.5,0.4c-0.2,0.1-0.4,0.2-0.6,0.2c-0.2,0-0.4,0-0.6-0.1c-0.2-0.1-0.4-0.2-0.5-0.3
			c-0.1-0.2-0.3-0.3-0.3-0.6c-0.1-0.2-0.1-0.5-0.1-0.8v-4.7h-2.1v4.7c0,0.6,0.1,1.2,0.3,1.7c0.2,0.5,0.5,0.9,0.8,1.2
			c0.3,0.3,0.7,0.6,1.2,0.8c0.4,0.2,0.9,0.3,1.4,0.3c0.2,0,0.5-0.1,0.7-0.2c0.2-0.1,0.5-0.2,0.7-0.3c-0.1,0.2-0.2,0.4-0.3,0.5
			c-0.1,0.2-0.3,0.3-0.4,0.4c-0.2,0.1-0.3,0.2-0.5,0.3c-0.2,0.1-0.4,0.1-0.6,0.1L184.3,69.8z M174.6,57h-2.1v2.2h2.1V57z"/>
	</g>
</g>
</svg>
