<?xml version="1.0" encoding="utf-8"?>
<!-- Generator: Adobe Illustrator 25.2.1, SVG Export Plug-In . SVG Version: 6.00 Build 0)  -->
<svg version="1.1" id="Layer_1" xmlns="http://www.w3.org/2000/svg" xmlns:xlink="http://www.w3.org/1999/xlink" x="0px" y="0px"
	 viewBox="0 0 1200 376" style="enable-background:new 0 0 1200 377;" xml:space="preserve">
<style type="text/css">
	.st0{fill:none;stroke:url(#SVGID_1_);stroke-dasharray:500,16;}
	.st1{fill:none;stroke:url(#SVGID_2_);stroke-dasharray:500,16;}
	.st2{fill:none;stroke:url(#SVGID_3_);stroke-dasharray:500,16;}
	.st3{fill:none;stroke:url(#SVGID_4_);stroke-dasharray:500,16;}
	.st4{fill:#FFFFFF;}
	.st5{fill-rule:evenodd;clip-rule:evenodd;fill:#FFFFFF;}
</style>
<linearGradient id="SVGID_1_" gradientUnits="userSpaceOnUse" x1="600" y1="0.2756" x2="600" y2="377.2756" gradientTransform="matrix(1 0 0 -1 0 377.2756)">
	<stop  offset="0" style="stop-color:#5525D0"/>
	<stop  offset="1" style="stop-color:#BEBEFF"/>
</linearGradient>
<path class="st0" d="M919,347.7c6.8-1.3,13.5-2.7,20.1-4.1l0,0c78.7-17,143.9-39.7,189.3-66.2c45.5-26.5,71.1-56.8,71.1-88.8
	s-25.6-62.2-71.1-88.8c-45.5-26.5-110.6-49.2-189.3-66.2l0,0c-6.6-1.4-13.3-2.8-20.1-4.1l0,0C826.6,11.1,717.3,0.5,600,0.5
	S373.4,11.1,281,29.3l0,0c-6.8,1.3-13.5,2.7-20.1,4.1l0,0C182.2,50.5,117,73.2,71.6,99.7c-45.5,26.5-71.1,56.8-71.1,88.8
	s25.6,62.2,71.1,88.8c45.4,26.5,110.6,49.2,189.3,66.2l0,0c6.6,1.4,13.3,2.8,20.1,4.1l0,0c92.4,18.3,201.8,28.8,319,28.8
	S826.6,365.9,919,347.7L919,347.7z"/>
<linearGradient id="SVGID_2_" gradientUnits="userSpaceOnUse" x1="600" y1="74.2756" x2="600" y2="303.2756" gradientTransform="matrix(1 0 0 -1 0 377.2756)">
	<stop  offset="0" style="stop-color:#5525D0"/>
	<stop  offset="1" style="stop-color:#BEBEFF"/>
</linearGradient>
<path class="st1" d="M806.9,285.4c4.4-0.8,8.7-1.6,13-2.5l0,0c52.2-10.3,95.3-24.1,125.5-40.3c30.2-16.2,47.1-34.6,47.1-54.1
	s-16.9-37.9-47.1-54.1c-30.1-16.2-73.3-30-125.5-40.3l0,0c-4.3-0.8-8.6-1.7-13-2.5l0,0c-60.1-10.9-131-17.1-206.9-17.1
	s-146.8,6.3-206.9,17.1l0,0c-4.4,0.8-8.7,1.6-13,2.5l0,0c-52.2,10.3-95.3,24.1-125.5,40.3c-30.2,16.2-47.1,34.6-47.1,54.1
	s16.9,37.9,47.1,54.1c30.1,16.2,73.3,30,125.5,40.3l0,0c4.3,0.8,8.6,1.7,13,2.5l0,0c60.1,10.9,131,17.1,206.9,17.1
	S746.8,296.2,806.9,285.4L806.9,285.4z"/>
<linearGradient id="SVGID_3_" gradientUnits="userSpaceOnUse" x1="600" y1="110.2756" x2="600" y2="267.2756" gradientTransform="matrix(1 0 0 -1 0 377.2756)">
	<stop  offset="0" style="stop-color:#5525D0"/>
	<stop  offset="1" style="stop-color:#BEBEFF"/>
</linearGradient>
<path class="st2" d="M762.4,123.7c-3.2-0.6-6.4-1.1-9.7-1.7l0,0c-44.5-7.3-96.8-11.5-152.8-11.5s-108.3,4.2-152.8,11.5l0,0
	c-3.3,0.5-6.5,1.1-9.7,1.7l0,0c-39.3,7-71.9,16.5-94.6,27.7c-11.4,5.6-20.2,11.5-26.3,17.8c-6,6.2-9.2,12.7-9.2,19.4
	s3.2,13.1,9.2,19.4c6,6.2,14.9,12.2,26.3,17.8c22.7,11.1,55.3,20.6,94.6,27.7l0,0c3.2,0.6,6.4,1.1,9.7,1.7l0,0
	c44.5,7.3,96.8,11.5,152.8,11.5s108.3-4.2,152.8-11.5l0,0c3.3-0.5,6.5-1.1,9.7-1.7l0,0c39.3-7,71.9-16.5,94.6-27.7
	c11.4-5.6,20.2-11.5,26.3-17.8c6-6.2,9.2-12.7,9.2-19.4s-3.2-13.1-9.2-19.4c-6-6.2-14.9-12.2-26.3-17.8
	C834.3,140.2,801.7,130.7,762.4,123.7L762.4,123.7z"/>
<linearGradient id="SVGID_4_" gradientUnits="userSpaceOnUse" x1="600" y1="37.2756" x2="600" y2="340.2756" gradientTransform="matrix(1 0 0 -1 0 377.2756)">
	<stop  offset="0" style="stop-color:#5525D0"/>
	<stop  offset="1" style="stop-color:#BEBEFF"/>
</linearGradient>
<path class="st3" d="M863.7,316.5c5.6-1.1,11.1-2.2,16.6-3.3l0,0c65.7-13.6,120-31.9,157.9-53.3c38-21.4,59.3-45.7,59.3-71.5
	s-21.3-50.1-59.3-71.5c-37.9-21.4-92.3-39.6-157.9-53.3l0,0c-5.5-1.1-11-2.2-16.6-3.3l0,0c-76.4-14.6-166.8-23-263.7-23
	s-187.2,8.4-263.7,23l0,0c-5.6,1.1-11.1,2.2-16.6,3.3l0,0c-65.7,13.6-120,31.9-157.9,53.3c-38,21.4-59.3,45.7-59.3,71.5
	s21.3,50.1,59.3,71.5c37.9,21.4,92.3,39.6,157.9,53.3l0,0c5.5,1.1,11,2.2,16.6,3.3l0,0c76.4,14.6,166.8,23,263.7,23
	S787.2,331.1,863.7,316.5L863.7,316.5z"/>
<path class="st4" d="M560.6,189.8c0,1.5-0.2,2.9-0.7,4.1c-0.5,1.3-1.1,2.3-2,3.2c-0.8,0.9-1.8,1.6-3,2.1c-1.1,0.5-2.3,0.7-3.6,0.7
	c-1.3,0-2.5-0.3-3.6-0.8c-1.1-0.5-2.1-1.2-3-2.1c-0.8-0.9-1.5-2-2-3.2c-0.5-1.3-0.7-2.6-0.7-4.1v-15.1h1.2l1.6,2.2
	c0,0,0.9,1.3,1.3,1.8c0.4,0.5,1.4,2,1.4,2c0.4-0.3,0.7-0.5,1.2-0.7c0.4-0.2,0.9-0.3,1.3-0.4c0.4-0.1,0.9-0.1,1.3-0.1
	c1.3,0,2.5,0.3,3.6,0.8c1.1,0.5,2.1,1.2,3,2.1c0.8,0.9,1.5,2,2,3.2C560.4,187,560.6,188.4,560.6,189.8z M556,189.8
	c0-0.7-0.1-1.4-0.4-2.1c-0.2-0.7-0.6-1.2-1-1.7c-0.4-0.5-0.9-0.8-1.5-1.1c-0.5-0.3-1.1-0.4-1.8-0.4c-0.6,0-1.2,0.1-1.8,0.4
	c-0.5,0.3-1,0.7-1.5,1.2c-0.4,0.5-0.7,1-1,1.7c-0.2,0.6-0.4,1.3-0.4,2c0,0.7,0.1,1.4,0.4,2.1c0.2,0.6,0.6,1.2,1,1.6
	c0.4,0.5,0.9,0.8,1.5,1.1c0.6,0.3,1.2,0.4,1.8,0.4c0.6,0,1.2-0.1,1.8-0.4c0.6-0.3,1.1-0.7,1.5-1.1s0.7-1,1-1.6
	C555.8,191.3,556,190.6,556,189.8z"/>
<path class="st5" d="M633.9,199.7h-4.6v-14.3H627v-4.9h2.3v-0.9c0-1.2,0.2-2.3,0.6-3.3c0.4-1,1-2,1.7-2.7c0.7-0.8,1.6-1.4,2.6-1.8
	c1-0.5,2-0.7,3.1-0.7h3.5v4.9h-3.5c-0.5,0-1,0.1-1.4,0.3c-0.4,0.2-0.8,0.4-1.1,0.8c-0.3,0.3-0.5,0.7-0.7,1.2
	c-0.2,0.4-0.3,0.9-0.3,1.4v0.9h5.7v4.9h-5.7V199.7z M570.8,195.1c-0.2,0-0.4-0.1-0.5-0.1l8.7-11.1c-0.4-0.7-0.9-1.2-1.5-1.7
	c-0.6-0.5-1.2-1-1.8-1.3c-0.6-0.3-1.3-0.6-2-0.8c-0.7-0.2-1.5-0.3-2.2-0.3c-1.3,0-2.5,0.3-3.6,0.7c-1.1,0.5-2.1,1.2-2.9,2.1
	c-0.8,0.9-1.5,2-2,3.2c-0.5,1.3-0.7,2.6-0.7,4.2c0,1.5,0.2,2.8,0.7,4.1c0.5,1.2,1.1,2.3,2,3.2c0.9,0.9,1.8,1.6,2.9,2.1
	c1.1,0.5,2.3,0.7,3.6,0.7c0.7,0,1.5-0.1,2.2-0.3c0.7-0.2,1.4-0.4,2-0.8c0.7-0.3,1.3-0.8,1.8-1.3c0.6-0.5,1.1-1.1,1.5-1.7l-3.4-3.6
	c-0.2,0.4-0.4,0.8-0.7,1.2c-0.3,0.3-0.6,0.7-1,0.9c-0.4,0.2-0.7,0.4-1.2,0.6c-0.4,0.1-0.9,0.2-1.3,0.2
	C571.2,195.1,571,195.1,570.8,195.1z M572,184.7c0.2,0,0.4,0.1,0.6,0.2l-5.4,7.6c-0.1-0.2-0.2-0.3-0.2-0.6c-0.1-0.2-0.1-0.4-0.2-0.7
	c0-0.2-0.1-0.5-0.1-0.7c0-0.2,0-0.4,0-0.6c0-0.8,0.1-1.5,0.4-2.2c0.2-0.7,0.5-1.2,1-1.7s0.9-0.8,1.4-1c0.6-0.3,1.2-0.4,1.8-0.4
	C571.6,184.7,571.8,184.7,572,184.7z M592.9,198.4c0.4-0.3,0.8-0.7,1.2-1l1.5,2.2h1.1v-19.2h-4.6v10.6c0,0.5-0.1,1-0.3,1.5
	c-0.2,0.5-0.4,0.9-0.7,1.3c-0.3,0.4-0.7,0.7-1.1,0.9c-0.4,0.2-0.9,0.3-1.3,0.3c-0.5,0-0.9-0.1-1.4-0.3c-0.4-0.2-0.8-0.4-1.1-0.8
	c-0.3-0.3-0.6-0.8-0.8-1.3c-0.2-0.5-0.3-1.1-0.3-1.7v-10.6h-4.6v10.6c0,1.4,0.2,2.6,0.6,3.7c0.4,1.1,1,2,1.7,2.8
	c0.7,0.8,1.6,1.3,2.6,1.8c1,0.4,2,0.6,3.1,0.6c0.5,0,1-0.1,1.5-0.2c0.5-0.1,1-0.3,1.4-0.5C592.1,199,592.5,198.8,592.9,198.4z
	 M604.3,207h-4.7v-26.5h1.1l1.8,2.3c0.4-0.4,0.9-0.8,1.4-1.2c0.5-0.4,1-0.7,1.5-1c0.5-0.3,1.1-0.5,1.7-0.7c0.6-0.2,1.2-0.2,1.7-0.2
	c1.3,0,2.5,0.3,3.6,0.7c1.1,0.5,2.1,1.2,2.9,2c0.9,0.9,1.5,2,2,3.2c0.5,1.2,0.7,2.6,0.7,4.1c0,1.6-0.2,3-0.7,4.3
	c-0.5,1.3-1.1,2.3-2,3.2c-0.8,0.9-1.8,1.5-2.9,2c-1.1,0.5-2.3,0.7-3.6,0.7c-0.4,0-0.8,0-1.2-0.1c-0.4-0.1-0.8-0.2-1.2-0.4
	c-0.4-0.2-0.8-0.3-1.1-0.6c-0.4-0.2-0.7-0.4-1.1-0.6L604.3,207L604.3,207z M613.5,189.9c0-0.8-0.1-1.5-0.4-2.2
	c-0.2-0.7-0.6-1.2-1-1.6c-0.4-0.5-0.9-0.8-1.5-1c-0.6-0.2-1.2-0.3-1.8-0.3s-1.2,0.1-1.8,0.3c-0.5,0.2-1,0.6-1.4,1
	c-0.4,0.4-0.7,1-1,1.6c-0.2,0.7-0.4,1.4-0.4,2.2c0,0.8,0.1,1.5,0.4,2.1c0.2,0.7,0.6,1.2,1,1.7s0.9,0.8,1.4,1.1
	c0.6,0.3,1.2,0.4,1.8,0.4s1.2-0.1,1.8-0.4s1.1-0.6,1.5-1.1s0.7-1,1-1.7C613.4,191.4,613.5,190.7,613.5,189.9z M620.1,199.6h4.7
	v-19.2h-4.7V199.6z M646.4,202v4.9l2.4,0c1.3,0,2.5-0.3,3.6-0.8s2.1-1.2,2.9-2.1c0.8-0.9,1.5-1.9,2-3.1c0.5-1.2,0.7-2.4,0.7-3.8
	v-16.8h-4.7v10.6c0,0.5-0.1,1-0.3,1.5c-0.2,0.5-0.4,0.9-0.7,1.3c-0.3,0.4-0.7,0.7-1.1,0.9c-0.4,0.2-0.9,0.3-1.3,0.3
	c-0.5,0-0.9-0.1-1.4-0.3c-0.4-0.2-0.8-0.4-1.1-0.7c-0.3-0.3-0.6-0.8-0.8-1.3c-0.2-0.5-0.3-1.1-0.3-1.8v-10.6h-4.6v10.6
	c0,1.4,0.2,2.6,0.6,3.7c0.4,1.1,1,2,1.7,2.8c0.7,0.8,1.6,1.3,2.6,1.8c1,0.4,2,0.6,3.1,0.6c0.5,0,1.1-0.1,1.6-0.3
	c0.5-0.2,1.1-0.5,1.6-0.7c-0.2,0.4-0.4,0.9-0.7,1.2c-0.3,0.4-0.6,0.7-0.9,1c-0.4,0.3-0.7,0.5-1.1,0.7c-0.4,0.2-0.9,0.2-1.3,0.2
	L646.4,202z M624.8,173.3h-4.7v4.9h4.7V173.3z"/>
</svg>
