<?xml version="1.0" encoding="utf-8"?>
<!-- Generator: Adobe Illustrator 25.2.3, SVG Export Plug-In . SVG Version: 6.00 Build 0)  -->
<svg version="1.1" id="Layer_1" xmlns="http://www.w3.org/2000/svg" xmlns:xlink="http://www.w3.org/1999/xlink" x="0px" y="0px"
	 viewBox="0 0 1200 377" style="enable-background:new 0 0 1200 377;" xml:space="preserve">
<style type="text/css">
	.st0{fill:url(#SVGID_1_);}
	.st1{fill:url(#SVGID_2_);}
	.st2{fill:url(#SVGID_3_);}
	.st3{fill:url(#SVGID_4_);}
	.st4{fill:#FFFFFF;}
	.st5{fill-rule:evenodd;clip-rule:evenodd;fill:#FFFFFF;}
</style>
<g>
	
		<linearGradient id="SVGID_1_" gradientUnits="userSpaceOnUse" x1="600" y1="0.2754" x2="600" y2="377.2754" gradientTransform="matrix(1 0 0 -1 0 377.2756)">
		<stop  offset="0" style="stop-color:#5525D0"/>
		<stop  offset="1" style="stop-color:#BEBEFF"/>
	</linearGradient>
	<path class="st0" d="M600,377c-47.7,0-95.3-1.8-141.2-5.3l0.1-1c46,3.5,93.5,5.2,141.2,5.2c39.9,0,79.8-1.2,118.6-3.7l0.1,1
		C679.8,375.8,639.9,377,600,377z M731.6,372.5l-0.1-1c66.5-4.7,129.6-12.8,187.4-24.3c6.8-1.3,13.5-2.7,20.1-4.1
		c78.6-17,144-39.8,189.2-66.2c11.9-6.9,22.4-14.2,31.4-21.5l0.6,0.8c-9,7.4-19.6,14.6-31.5,21.6C1083.5,304.1,1018,327,939.2,344
		c-6.5,1.4-13.3,2.8-20.1,4.1C861.3,359.6,798.2,367.8,731.6,372.5z M445.8,370.7c-58.3-4.9-113.8-12.4-164.9-22.6
		c-6.8-1.3-13.6-2.7-20.1-4.1c-24.9-5.4-48.7-11.4-70.8-17.9l0.3-1c22.1,6.5,45.9,12.5,70.7,17.9c6.5,1.4,13.3,2.8,20.1,4.1
		c51.1,10.1,106.6,17.7,164.8,22.5L445.8,370.7z M177.5,322.3c-42.3-13.2-78-28.2-106.2-44.6C24.7,250.5,0,219.6,0,188.5
		c0-8.4,1.8-16.9,5.3-25.2l0.9,0.4C2.8,171.8,1,180.2,1,188.5c0,30.8,24.5,61.3,70.8,88.4c28.1,16.4,63.7,31.4,106,44.5L177.5,322.3
		z M1170,247.5l-0.7-0.7c19.7-18.8,29.7-38.4,29.7-58.3c0-30.8-24.5-61.3-70.8-88.4c-18.7-10.9-41.1-21.3-66.4-30.9l0.4-0.9
		c25.4,9.6,47.7,20,66.5,31c46.7,27.2,71.3,58.1,71.3,89.2C1200,208.7,1189.9,228.5,1170,247.5z M12.3,152.2l-0.8-0.5
		c11.5-18.3,31.7-36,59.9-52.4c41-23.9,99.3-45.2,168.5-61.6l0.2,1C170.9,55,112.7,76.3,71.8,100.1
		C43.8,116.5,23.7,134.1,12.3,152.2z M1049.6,64.7c-32.7-11.6-69.9-22-110.6-30.8c-6.6-1.4-13.3-2.8-20.1-4.1
		c-38.6-7.6-80.1-13.9-123.1-18.6l0.1-1C839,15,880.5,21.2,919.1,28.8c6.7,1.3,13.5,2.7,20.1,4.1c40.7,8.8,78,19.1,110.7,30.8
		L1049.6,64.7z M252.8,35.8l-0.2-1c2.7-0.6,5.5-1.2,8.2-1.8c6.6-1.4,13.3-2.8,20.1-4.1C351.1,15,428.3,6,510.3,2.1l0,1
		C428.4,7,351.3,15.9,281.1,29.8c-6.7,1.3-13.5,2.7-20.1,4.1C258.2,34.6,255.5,35.2,252.8,35.8z M782.9,9.9C724,4,662.5,1,600,1
		c-25.6,0-51.5,0.5-76.7,1.5l0-1C548.5,0.5,574.3,0,600,0c62.5,0,124.1,3,183,8.9L782.9,9.9z"/>
</g>
<g>
	
		<linearGradient id="SVGID_2_" gradientUnits="userSpaceOnUse" x1="600" y1="74.2754" x2="600" y2="303.2754" gradientTransform="matrix(1 0 0 -1 0 377.2756)">
		<stop  offset="0" style="stop-color:#5525D0"/>
		<stop  offset="1" style="stop-color:#BEBEFF"/>
	</linearGradient>
	<path class="st1" d="M599.8,303c-5.9,0-11.9,0-17.9-0.1l0-1c5.9,0.1,11.9,0.1,17.9,0.1c0.1,0,0.1,0,0.2,0
		c73.3,0,144.9-5.9,206.8-17.1c4.4-0.8,8.8-1.6,13-2.5c52.1-10.3,95.4-24.2,125.3-40.3c30.6-16.4,46.8-35,46.8-53.6
		s-16.2-37.2-46.8-53.6c-15.2-8.2-34-15.8-55.7-22.7l0.3-1c21.7,6.9,40.5,14.6,55.8,22.8c31,16.6,47.3,35.5,47.3,54.5
		c0,19-16.4,37.9-47.3,54.5c-30,16.1-73.4,30.1-125.6,40.4c-4.3,0.8-8.7,1.7-13,2.5C745,297.1,673.4,303,600,303
		C599.9,303,599.9,303,599.8,303z M565.9,302.6C504.8,301,445,295.3,393,285.8c-4.4-0.8-8.8-1.6-13-2.5
		c-52.2-10.3-95.6-24.2-125.6-40.4c-12.4-6.7-22.5-13.7-30.1-20.9l0.7-0.7c7.5,7.2,17.6,14.2,29.9,20.8
		c29.9,16.1,73.2,30,125.3,40.3c4.3,0.8,8.6,1.7,13,2.5c52,9.4,111.7,15.2,172.8,16.7L565.9,302.6z M213.8,209.8
		c-4.5-7-6.8-14.2-6.8-21.3c0-19,16.4-37.9,47.3-54.5c30-16.1,73.4-30.1,125.6-40.4c4.3-0.8,8.7-1.7,13-2.5
		c34.8-6.3,72.5-10.9,112.1-13.8l0.1,1c-39.6,2.9-77.3,7.5-112,13.8c-4.4,0.8-8.7,1.6-13,2.5c-52.1,10.3-95.4,24.2-125.3,40.3
		c-30.6,16.4-46.8,35-46.8,53.6c0,7,2.2,14,6.6,20.8L213.8,209.8z M874.2,107.5c-16.7-4.8-35-9.1-54.3-12.9c-4.3-0.8-8.6-1.7-13-2.5
		C744.9,80.9,673.3,75,600,75c-26.5,0-53.1,0.8-78.8,2.3l-0.1-1c25.8-1.5,52.3-2.3,78.9-2.3c73.4,0,145,5.9,207,17.2
		c4.4,0.8,8.8,1.6,13,2.5c19.4,3.8,37.7,8.2,54.4,12.9L874.2,107.5z"/>
</g>
<g>
	
		<linearGradient id="SVGID_3_" gradientUnits="userSpaceOnUse" x1="600.1611" y1="110.2754" x2="600.1611" y2="267.2754" gradientTransform="matrix(1 0 0 -1 0 377.2756)">
		<stop  offset="0" style="stop-color:#5525D0"/>
		<stop  offset="1" style="stop-color:#BEBEFF"/>
	</linearGradient>
	<path class="st2" d="M600,267c-15.5,0-31.1-0.3-46.3-1l0-1c15.2,0.6,30.7,1,46.2,1c54,0,106.8-4,152.7-11.5
		c3.2-0.5,6.4-1.1,9.7-1.7c39.2-7,71.9-16.6,94.5-27.6c11.4-5.6,20.2-11.5,26.1-17.7c6-6.2,9-12.6,9-19s-3-12.8-9-19
		c-5.9-6.1-14.7-12.1-26.1-17.7c-8.9-4.3-19.3-8.5-31.1-12.3l0.3-1c11.8,3.8,22.4,8,31.3,12.4c11.5,5.6,20.4,11.7,26.4,17.9
		c6.2,6.4,9.3,13,9.3,19.7c0,6.7-3.1,13.3-9.3,19.7c-6,6.2-14.9,12.2-26.4,17.9c-22.6,11.1-55.4,20.7-94.7,27.7
		c-3.3,0.6-6.5,1.1-9.7,1.7C706.9,263,654.1,267,600,267z M537.8,265.2c-32.1-1.9-62.5-5.1-90.6-9.7c-3.2-0.5-6.5-1.1-9.7-1.7
		c-39.3-7-72.1-16.6-94.7-27.7c-11.5-5.6-20.4-11.7-26.4-17.9c-5-5.2-8.1-10.6-9-16l1-0.2c0.9,5.2,3.8,10.4,8.7,15.5
		c5.9,6.1,14.7,12.1,26.1,17.7c22.6,11.1,55.2,20.6,94.5,27.6c3.2,0.6,6.4,1.1,9.7,1.7c28,4.6,58.5,7.9,90.5,9.7L537.8,265.2z
		 M311.3,177l-0.9-0.5c1.5-2.6,3.5-5.2,5.9-7.7c6-6.2,14.9-12.2,26.4-17.9c22.7-11.1,55.4-20.7,94.7-27.7c3.4-0.6,7-1.2,9.8-1.7
		c30.7-5,64.1-8.5,99.3-10.2l0,1c-35.2,1.7-68.5,5.2-99.1,10.2c-2.8,0.5-6.4,1.1-9.8,1.7c-39.1,7-71.8,16.6-94.4,27.6
		c-11.4,5.6-20.2,11.5-26.1,17.7C314.7,171.9,312.7,174.5,311.3,177z M810.4,134.9c-14.5-4-30.7-7.6-48-10.7
		c-3.2-0.6-6.4-1.1-9.7-1.7C706.8,115,654,111,600,111c-12.6,0-25.2,0.2-37.5,0.6l0-1c12.4-0.4,25-0.6,37.6-0.6
		c54.1,0,106.9,4,152.8,11.5c3.2,0.5,6.5,1.1,9.7,1.7c17.4,3.1,33.6,6.7,48.1,10.8L810.4,134.9z"/>
</g>
<g>
	
		<linearGradient id="SVGID_4_" gradientUnits="userSpaceOnUse" x1="600" y1="37.2754" x2="600" y2="340.2754" gradientTransform="matrix(1 0 0 -1 0 377.2756)">
		<stop  offset="0" style="stop-color:#5525D0"/>
		<stop  offset="1" style="stop-color:#BEBEFF"/>
	</linearGradient>
	<path class="st3" d="M600,340c-38,0-75.9-1.3-112.5-3.9l0.1-1c36.7,2.6,74.5,3.9,112.5,3.9c32.7,0,65.5-1,97.3-2.9l0.1,1
		C665.5,339,632.8,340,600,340z M713.4,336.1l-0.1-1c53.3-3.8,103.8-10.2,150.3-19c5.6-1.1,11.2-2.2,16.6-3.3
		c65.6-13.6,120.2-32,157.8-53.2c8-4.5,15.3-9.1,21.7-13.8l0.6,0.8c-6.4,4.7-13.8,9.4-21.8,13.9c-37.7,21.2-92.4,39.7-158.1,53.3
		c-5.4,1.1-11,2.2-16.6,3.3C817.2,325.9,766.6,332.3,713.4,336.1z M471.5,334.9c-47.7-3.9-93.3-9.9-135.3-17.9
		c-5.6-1.1-11.2-2.2-16.6-3.3c-19.3-4-37.8-8.5-55.1-13.3l0.3-1c17.2,4.8,35.8,9.2,55,13.2c5.4,1.1,11,2.2,16.6,3.3
		c42,8,87.4,14,135.2,17.9L471.5,334.9z M249.2,296c-34.9-10.5-64.3-22.5-87.6-35.6c-39-21.9-59.5-46.8-59.5-71.9
		c0-6,1.2-12,3.5-17.9l0.9,0.4c-2.2,5.8-3.4,11.7-3.4,17.6c0,24.7,20.4,49.3,59,71c23.2,13.1,52.6,25,87.4,35.5L249.2,296z
		 M1072.7,236.3l-0.7-0.7c16.6-15.2,25-31,25-47.1c0-24.7-20.4-49.3-59-71c-14.8-8.4-32.4-16.3-52.2-23.7l0.3-0.9
		c19.8,7.4,37.5,15.4,52.3,23.8c39,21.9,59.5,46.8,59.5,71.9C1098,204.9,1089.5,221,1072.7,236.3z M114,157l-0.8-0.6
		c9.8-13.9,26.1-27.3,48.4-39.9c33.7-19,81.5-35.9,138.3-49l0.2,1c-56.6,13-104.4,29.9-138,48.9C139.9,129.9,123.7,143.3,114,157z
		 M970.7,88.4c-26.9-9.1-57.3-17.2-90.5-24.1c-5.4-1.1-11-2.2-16.6-3.3c-30.9-5.9-63.9-10.7-98.1-14.4l0.1-1
		c34.3,3.7,67.3,8.5,98.2,14.4c5.6,1.1,11.2,2.2,16.6,3.3c33.3,6.9,63.8,15,90.7,24.2L970.7,88.4z M315.7,65.1l-0.2-1
		c1.4-0.3,2.8-0.6,4.2-0.9c5.4-1.1,11-2.2,16.6-3.3C393.7,49,456.8,41.9,523.8,38.8l0,1C456.9,42.9,393.9,50,336.4,61
		c-5.6,1.1-11.2,2.2-16.6,3.3C318.4,64.5,317,64.8,315.7,65.1z M749.5,45c-48.2-4.6-98.5-7-149.5-7c-20.1,0-40.4,0.4-60.2,1.1l0-1
		c19.8-0.7,40.1-1.1,60.2-1.1c51,0,101.4,2.3,149.6,7L749.5,45z"/>
</g>
<g>
	<path class="st4" d="M560.6,189.8c0,1.5-0.2,2.9-0.7,4.1c-0.5,1.3-1.1,2.3-2,3.2c-0.8,0.9-1.8,1.6-3,2.1c-1.1,0.5-2.3,0.7-3.6,0.7
		c-1.3,0-2.5-0.3-3.6-0.8c-1.1-0.5-2.1-1.2-3-2.1c-0.8-0.9-1.5-2-2-3.2c-0.5-1.3-0.7-2.6-0.7-4.1v-15.1h1.2l1.6,2.2
		c0,0,0.9,1.3,1.3,1.8c0.4,0.5,1.4,2,1.4,2c0.4-0.3,0.7-0.5,1.2-0.7c0.4-0.2,0.9-0.3,1.3-0.4c0.4-0.1,0.9-0.1,1.3-0.1
		c1.3,0,2.5,0.3,3.6,0.8c1.1,0.5,2.1,1.2,3,2.1c0.8,0.9,1.5,2,2,3.2C560.4,187,560.6,188.4,560.6,189.8z M556,189.8
		c0-0.7-0.1-1.4-0.4-2.1c-0.2-0.7-0.6-1.2-1-1.7c-0.4-0.5-0.9-0.8-1.5-1.1c-0.5-0.3-1.1-0.4-1.8-0.4c-0.6,0-1.2,0.1-1.8,0.4
		c-0.5,0.3-1,0.7-1.5,1.2c-0.4,0.5-0.7,1-1,1.7c-0.2,0.6-0.4,1.3-0.4,2c0,0.7,0.1,1.4,0.4,2.1c0.2,0.6,0.6,1.2,1,1.6
		c0.4,0.5,0.9,0.8,1.5,1.1c0.6,0.3,1.2,0.4,1.8,0.4c0.6,0,1.2-0.1,1.8-0.4c0.6-0.3,1.1-0.7,1.5-1.1s0.7-1,1-1.6
		C555.8,191.3,556,190.6,556,189.8z"/>
</g>
<g>
	<path class="st5" d="M633.9,199.7h-4.6v-14.3H627v-4.9h2.3v-0.9c0-1.2,0.2-2.3,0.6-3.3c0.4-1,1-2,1.7-2.7c0.7-0.8,1.6-1.4,2.6-1.8
		c1-0.5,2-0.7,3.1-0.7h3.5v4.9h-3.5c-0.5,0-1,0.1-1.4,0.3c-0.4,0.2-0.8,0.4-1.1,0.8c-0.3,0.3-0.5,0.7-0.7,1.2
		c-0.2,0.4-0.3,0.9-0.3,1.4v0.9h5.7v4.9h-5.7V199.7z M570.8,195.1c-0.2,0-0.4-0.1-0.5-0.1l8.7-11.1c-0.4-0.7-0.9-1.2-1.5-1.7
		c-0.6-0.5-1.2-1-1.8-1.3c-0.6-0.3-1.3-0.6-2-0.8c-0.7-0.2-1.5-0.3-2.2-0.3c-1.3,0-2.5,0.3-3.6,0.7c-1.1,0.5-2.1,1.2-2.9,2.1
		c-0.8,0.9-1.5,2-2,3.2c-0.5,1.3-0.7,2.6-0.7,4.2c0,1.5,0.2,2.8,0.7,4.1c0.5,1.2,1.1,2.3,2,3.2c0.9,0.9,1.8,1.6,2.9,2.1
		c1.1,0.5,2.3,0.7,3.6,0.7c0.7,0,1.5-0.1,2.2-0.3c0.7-0.2,1.4-0.4,2-0.8c0.7-0.3,1.3-0.8,1.8-1.3c0.6-0.5,1.1-1.1,1.5-1.7l-3.4-3.6
		c-0.2,0.4-0.4,0.8-0.7,1.2c-0.3,0.3-0.6,0.7-1,0.9c-0.4,0.2-0.7,0.4-1.2,0.6c-0.4,0.1-0.9,0.2-1.3,0.2
		C571.2,195.1,571,195.1,570.8,195.1z M572,184.7c0.2,0,0.4,0.1,0.6,0.2l-5.4,7.6c-0.1-0.2-0.2-0.3-0.2-0.6
		c-0.1-0.2-0.1-0.4-0.2-0.7c0-0.2-0.1-0.5-0.1-0.7c0-0.2,0-0.4,0-0.6c0-0.8,0.1-1.5,0.4-2.2c0.2-0.7,0.5-1.2,1-1.7s0.9-0.8,1.4-1
		c0.6-0.3,1.2-0.4,1.8-0.4C571.6,184.7,571.8,184.7,572,184.7z M592.9,198.4c0.4-0.3,0.8-0.7,1.2-1l1.5,2.2h1.1v-19.2h-4.6v10.6
		c0,0.5-0.1,1-0.3,1.5c-0.2,0.5-0.4,0.9-0.7,1.3c-0.3,0.4-0.7,0.7-1.1,0.9c-0.4,0.2-0.9,0.3-1.3,0.3c-0.5,0-0.9-0.1-1.4-0.3
		c-0.4-0.2-0.8-0.4-1.1-0.8c-0.3-0.3-0.6-0.8-0.8-1.3c-0.2-0.5-0.3-1.1-0.3-1.7v-10.6h-4.6v10.6c0,1.4,0.2,2.6,0.6,3.7
		c0.4,1.1,1,2,1.7,2.8c0.7,0.8,1.6,1.3,2.6,1.8c1,0.4,2,0.6,3.1,0.6c0.5,0,1-0.1,1.5-0.2c0.5-0.1,1-0.3,1.4-0.5
		C592.1,199,592.5,198.8,592.9,198.4z M604.3,207h-4.7v-26.5h1.1l1.8,2.3c0.4-0.4,0.9-0.8,1.4-1.2c0.5-0.4,1-0.7,1.5-1
		c0.5-0.3,1.1-0.5,1.7-0.7c0.6-0.2,1.2-0.2,1.7-0.2c1.3,0,2.5,0.3,3.6,0.7c1.1,0.5,2.1,1.2,2.9,2c0.9,0.9,1.5,2,2,3.2
		c0.5,1.2,0.7,2.6,0.7,4.1c0,1.6-0.2,3-0.7,4.3c-0.5,1.3-1.1,2.3-2,3.2c-0.8,0.9-1.8,1.5-2.9,2c-1.1,0.5-2.3,0.7-3.6,0.7
		c-0.4,0-0.8,0-1.2-0.1c-0.4-0.1-0.8-0.2-1.2-0.4c-0.4-0.2-0.8-0.3-1.1-0.6c-0.4-0.2-0.7-0.4-1.1-0.6L604.3,207L604.3,207z
		 M613.5,189.9c0-0.8-0.1-1.5-0.4-2.2c-0.2-0.7-0.6-1.2-1-1.6c-0.4-0.5-0.9-0.8-1.5-1c-0.6-0.2-1.2-0.3-1.8-0.3s-1.2,0.1-1.8,0.3
		c-0.5,0.2-1,0.6-1.4,1c-0.4,0.4-0.7,1-1,1.6c-0.2,0.7-0.4,1.4-0.4,2.2c0,0.8,0.1,1.5,0.4,2.1c0.2,0.7,0.6,1.2,1,1.7
		s0.9,0.8,1.4,1.1c0.6,0.3,1.2,0.4,1.8,0.4s1.2-0.1,1.8-0.4s1.1-0.6,1.5-1.1s0.7-1,1-1.7C613.4,191.4,613.5,190.7,613.5,189.9z
		 M620.1,199.6h4.7v-19.2h-4.7V199.6z M646.4,202v4.9l2.4,0c1.3,0,2.5-0.3,3.6-0.8s2.1-1.2,2.9-2.1c0.8-0.9,1.5-1.9,2-3.1
		c0.5-1.2,0.7-2.4,0.7-3.8v-16.8h-4.7v10.6c0,0.5-0.1,1-0.3,1.5c-0.2,0.5-0.4,0.9-0.7,1.3c-0.3,0.4-0.7,0.7-1.1,0.9
		c-0.4,0.2-0.9,0.3-1.3,0.3c-0.5,0-0.9-0.1-1.4-0.3c-0.4-0.2-0.8-0.4-1.1-0.7c-0.3-0.3-0.6-0.8-0.8-1.3c-0.2-0.5-0.3-1.1-0.3-1.8
		v-10.6h-4.6v10.6c0,1.4,0.2,2.6,0.6,3.7c0.4,1.1,1,2,1.7,2.8c0.7,0.8,1.6,1.3,2.6,1.8c1,0.4,2,0.6,3.1,0.6c0.5,0,1.1-0.1,1.6-0.3
		c0.5-0.2,1.1-0.5,1.6-0.7c-0.2,0.4-0.4,0.9-0.7,1.2c-0.3,0.4-0.6,0.7-0.9,1c-0.4,0.3-0.7,0.5-1.1,0.7c-0.4,0.2-0.9,0.2-1.3,0.2
		L646.4,202z M624.8,173.3h-4.7v4.9h4.7V173.3z"/>
</g>
</svg>
