<svg width="400" height="128" viewBox="0 0 400 128" fill="none" xmlns="http://www.w3.org/2000/svg">
<path fill-rule="evenodd" clip-rule="evenodd" d="M151.744 52.6624H155.417V52.6624C163.839 52.6624 168.238 53.8291 168.238 66.9649C168.238 80.6639 163.254 81.3568 155.517 81.3568L151.744 81.2613V52.6624ZM142.543 88.8587H152.937C166.592 88.8588 177.44 86.2316 177.44 66.9649C177.44 47.5121 167.199 45.0723 153.695 45.0723H142.543V88.8587ZM326.901 45.0898H336V88.9425H326.901V45.0898ZM235.305 55.3555H244.449L244.446 72.2007C244.446 81.9283 237.999 89.8123 228.12 89.8123C218.239 89.8123 211.888 81.9283 211.888 72.2007L211.89 55.3714H221.01V72.2007C221.01 77.1232 223.174 81.1056 228.176 81.1056C233.176 81.1056 235.319 77.1232 235.319 72.2007L235.305 55.3555ZM204.452 54.9888C196.609 53.2064 191.661 60.8786 191.455 61.2899C191.442 61.3152 191.431 61.3392 191.421 61.3617L191.421 61.3619L191.421 61.3622C191.348 61.5195 191.307 61.6084 191.003 61.6008C190.716 61.5947 190.684 61.2899 190.684 61.2899L189.71 55.421H181.559V88.9143H190.696V70.7849C190.696 69.3036 194.747 62.2007 202.598 64.0284C206.568 64.954 208.253 66.6128 208.253 66.6128V56.4089C207.06 55.7633 205.78 55.2853 204.452 54.9888ZM270.77 64.9857C269.27 63.9995 267.507 63.4733 265.704 63.4736C263.287 63.4743 260.969 64.4201 259.259 66.103C257.55 67.7859 256.589 70.0683 256.589 72.4483C256.588 74.2239 257.123 75.9597 258.124 77.4361C259.126 78.9126 260.55 80.0634 262.216 80.7431C263.882 81.4227 265.715 81.6007 267.484 81.2544C269.253 80.9081 270.878 80.0531 272.153 78.7976C273.428 77.5421 274.296 75.9424 274.648 74.201C275 72.4595 274.819 70.6545 274.129 69.0141C273.438 67.3738 272.27 65.9719 270.77 64.9857ZM256.847 87.893V99.9442L247.686 99.9442V72.4483C247.686 69.1484 248.622 65.9141 250.387 63.1091C252.153 60.3041 254.678 58.0398 257.679 56.5708C260.68 55.1018 264.038 54.4865 267.375 54.794C270.712 55.1014 273.896 56.3196 276.568 58.3113C279.241 60.3031 281.295 62.9895 282.502 66.0683C283.708 69.1471 284.018 72.4961 283.396 75.7388C282.774 78.9815 281.246 81.9891 278.983 84.4233C276.72 86.8575 273.813 88.6217 270.587 89.5176C262.132 91.5449 258.322 85.0798 257.629 83.3818L257.621 83.3608C257.552 83.1906 257.48 83.0135 257.197 83.017C256.866 83.0207 256.852 83.3818 256.852 83.3818L256.85 87.8955L256.847 87.893ZM314.307 72.4481C314.307 74.2236 313.773 75.9593 312.771 77.4358C311.77 78.9122 310.346 80.0631 308.68 80.7428C307.014 81.4225 305.181 81.6004 303.412 81.2542C301.643 80.908 300.019 80.0532 298.743 78.7978C297.468 77.5424 296.6 75.9429 296.248 74.2015C295.896 72.4602 296.076 70.6552 296.766 69.0148C297.457 67.3745 298.625 65.9724 300.125 64.9861C301.624 63.9997 303.387 63.4733 305.19 63.4734C307.608 63.4739 309.926 64.4196 311.636 66.1025C313.345 67.7854 314.306 70.0679 314.307 72.4481ZM314.047 88.9273H323.208V72.4481C323.208 69.1483 322.273 65.9141 320.507 63.1092C318.742 60.3043 316.217 58.04 313.216 56.571C310.215 55.102 306.857 54.4865 303.52 54.7939C300.183 55.1013 297 56.3193 294.327 58.3109C291.655 60.3024 289.6 62.9886 288.394 66.0673C287.188 69.1459 286.878 72.4948 287.499 75.7374C288.121 78.9799 289.649 81.9875 291.912 84.4217C294.174 86.8559 297.082 88.6202 300.307 89.5161C308.763 91.5446 312.572 85.0784 313.265 83.3816L313.274 83.3588C313.343 83.1892 313.414 83.0132 313.698 83.0156C314.028 83.0205 314.042 83.3816 314.042 83.3816L314.047 88.9273Z" fill="white"/>
<path d="M103.502 43.3366C98.3564 38.2724 93.4466 33.4447 91.9854 28C90.5241 33.4447 85.6134 38.2724 80.4683 43.3366C72.7504 50.9306 64 59.5372 64 72.4456C64 76.0641 64.7239 79.6472 66.1303 82.9902C67.5368 86.3333 69.5982 89.3708 72.197 91.9295C74.7957 94.4882 77.8809 96.5178 81.2763 97.9025C84.6718 99.2873 88.311 100 91.9862 100C95.6614 100 99.3006 99.2873 102.696 97.9025C106.091 96.5178 109.177 94.4882 111.775 91.9295C114.374 89.3708 116.436 86.3333 117.842 82.9902C119.248 79.6472 119.972 76.0641 119.972 72.4456C119.972 59.538 111.223 50.9306 103.502 43.3366Z" fill="#1E1939"/>
<path d="M103.502 43.3366C98.3564 38.2724 93.4466 33.4447 91.9854 28C90.5241 33.4447 85.6134 38.2724 80.4683 43.3366C72.7504 50.9306 64 59.5372 64 72.4456C64 76.0641 64.7239 79.6472 66.1303 82.9902C67.5368 86.3333 69.5982 89.3708 72.197 91.9295C74.7957 94.4882 77.8809 96.5178 81.2763 97.9025C84.6718 99.2873 88.311 100 91.9862 100C95.6614 100 99.3006 99.2873 102.696 97.9025C106.091 96.5178 109.177 94.4882 111.775 91.9295C114.374 89.3708 116.436 86.3333 117.842 82.9902C119.248 79.6472 119.972 76.0641 119.972 72.4456C119.972 59.538 111.223 50.9306 103.502 43.3366ZM75.895 78.8662C74.179 78.8089 67.846 68.0614 79.5948 56.618L87.3694 64.9795C87.4362 65.0444 87.4882 65.1225 87.5221 65.2086C87.556 65.2947 87.571 65.3869 87.5661 65.4792C87.5612 65.5714 87.5365 65.6616 87.4936 65.7437C87.4508 65.8259 87.3908 65.8982 87.3176 65.9559C85.4623 67.8293 77.5549 75.6365 76.572 78.3361C76.3692 78.8933 76.0729 78.8722 75.895 78.8662ZM91.9862 93.0311C90.7222 93.0311 89.4706 92.786 88.3028 92.3098C87.135 91.8335 86.0739 91.1355 85.1802 90.2555C84.2864 89.3755 83.5774 88.3308 83.0937 87.181C82.61 86.0312 82.361 84.7989 82.361 83.5544C82.3966 81.2566 83.245 79.043 84.7601 77.2948C86.4956 75.2053 91.9849 69.3285 91.9849 69.3285C91.9849 69.3285 97.3902 75.2916 99.1968 77.2749C100.771 78.9973 101.632 81.2377 101.611 83.5544C101.611 86.0678 100.597 88.4782 98.7922 90.2554C96.9872 92.0327 94.539 93.0311 91.9862 93.0311ZM110.409 77.6633C110.201 78.11 109.731 78.8557 109.096 78.8785C107.963 78.9191 107.842 78.3479 107.006 77.1286C105.168 74.4518 89.1354 57.954 86.1366 54.7633C83.4988 51.957 85.7651 49.9785 86.8164 48.9417C88.1353 47.6408 91.9852 43.8526 91.9852 43.8526C91.9852 43.8526 103.465 54.5763 108.247 61.9034C113.028 69.2306 111.38 75.571 110.409 77.6633Z" fill="white"/>
</svg>
