<svg width="400" height="128" viewBox="0 0 400 128" fill="none" xmlns="http://www.w3.org/2000/svg">
<path d="M127.443 41.6367C127.394 41.2791 127.077 41.0807 126.815 41.0591C126.554 41.0375 121.447 40.9609 121.447 40.9609C121.447 40.9609 117.177 36.8663 116.755 36.4497C116.333 36.0332 115.509 36.159 115.189 36.2533C115.185 36.2552 114.387 36.4989 113.043 36.9095C112.818 36.1904 112.488 35.3063 112.016 34.4182C110.496 31.5535 108.269 30.0387 105.578 30.0348C105.575 30.0348 105.572 30.0348 105.569 30.0348C105.381 30.0348 105.196 30.0525 105.009 30.0682C104.93 29.9739 104.85 29.8815 104.767 29.7912C103.594 28.5534 102.092 27.9502 100.291 28.0032C96.8162 28.1015 93.3555 30.579 90.5495 34.9801C88.5754 38.0766 87.0728 41.9669 86.647 44.9788C82.6568 46.1989 79.8668 47.0516 79.8051 47.0713C77.7911 47.696 77.7274 47.7569 77.4647 49.6314C77.2697 51.0479 72 91.2786 72 91.2786L116.162 98.8193L135.302 94.1215C135.302 94.1215 127.493 41.9944 127.443 41.6367ZM110.832 37.5854C109.815 37.8958 108.659 38.2495 107.405 38.6326C107.38 36.8958 107.171 34.4791 106.351 32.3905C108.988 32.8837 110.285 35.8289 110.832 37.5854ZM105.095 39.3399C102.78 40.0472 100.255 40.8194 97.7217 41.5935C98.4341 38.8998 99.7854 36.2179 101.445 34.4594C102.062 33.8052 102.926 33.0762 103.949 32.6597C104.91 34.6402 105.119 37.4439 105.095 39.3399ZM100.36 30.2863C101.176 30.2686 101.863 30.4454 102.45 30.8266C101.511 31.308 100.603 31.9996 99.7516 32.9014C97.5445 35.2395 95.853 38.8684 95.1784 42.3696C93.0748 43.012 91.0171 43.6428 89.1225 44.2205C90.3187 38.7092 94.9972 30.4395 100.36 30.2863Z" fill="white"/>
<path d="M105.555 50.777L103.332 58.9877C103.332 58.9877 100.852 57.8737 97.9128 58.0564C93.6022 58.3256 93.5564 61.0094 93.6003 61.6834C93.8351 65.3555 103.62 66.1572 104.17 74.7589C104.601 81.5256 100.534 86.1545 94.6729 86.52C87.6379 86.9581 83.7653 82.8616 83.7653 82.8616L85.2559 76.6018C85.2559 76.6018 89.1543 79.5058 92.2748 79.3113C94.3127 79.1836 95.041 77.5469 94.9673 76.3896C94.6609 71.5995 86.6926 71.8824 86.1892 64.0116C85.7653 57.3884 90.1714 50.6768 99.8928 50.0716C103.638 49.8339 105.555 50.777 105.555 50.777Z" fill="#1E1939"/>
<path fill-rule="evenodd" clip-rule="evenodd" d="M298.075 55.8045H292.039L292.352 54.3761C292.855 51.4588 294.616 48.8514 297.508 48.8514C299.052 48.8514 300.274 49.286 300.274 49.286L301.971 42.5823C301.971 42.5823 300.462 41.8379 297.255 41.8379C294.174 41.8379 291.095 42.707 288.768 44.6927C285.812 47.1755 284.429 50.7748 283.738 54.3761L283.488 55.8045H279.463L278.205 62.2608H282.231L277.641 86.2206H286.318L290.908 62.2608H296.881L298.075 55.8045ZM182.389 59.7135C184.715 56.9833 187.733 55.1826 191.568 55.1826C196.094 55.1826 198.672 58.0999 198.676 62.9425C198.676 64.4334 198.423 66.6666 198.045 68.5296L194.651 86.2204H185.974L189.243 69.0889C189.493 67.9099 189.62 66.4815 189.62 65.3025C189.62 63.4394 188.864 62.1358 186.915 62.1358C184.148 62.1358 181.193 65.6104 180.062 71.2598L177.171 86.2184H168.494L176.918 42.4573H185.595L182.263 59.6511L182.389 59.7135ZM157.175 64.4309C157.175 65.797 158.307 66.7909 160.507 67.9699C163.904 69.8932 166.733 72.5007 166.735 76.1604C166.735 82.9888 161.139 86.7752 153.342 86.7752C147.979 86.7752 144.792 84.6647 144.792 84.6647L146.929 78.5807C146.929 78.5807 150.38 80.4438 154.033 80.4438C156.485 80.4438 157.805 79.1401 157.805 77.5265C157.805 75.9753 156.862 74.919 154.221 73.4302C150.95 71.5692 148.498 68.9617 148.498 65.5475C148.498 59.5259 153.749 55.2426 161.325 55.2426C166.768 55.2426 168.618 56.671 168.618 56.671L166.606 62.755C166.606 62.755 164.056 61.576 161.2 61.576C158.747 61.576 157.175 62.6927 157.175 64.4309ZM218.288 55.1829C207.85 55.1829 200.936 64.4941 200.936 74.8594C200.936 81.5007 205.085 86.8384 212.882 86.8384C223.13 86.8384 230.046 77.7767 230.046 67.1618C230.046 61.0174 226.399 55.1829 218.288 55.1829ZM214.013 80.2613C211.058 80.2613 209.8 77.7786 209.8 74.6742C209.8 69.7712 212.379 61.7639 217.094 61.7639C220.175 61.7639 221.179 64.3712 221.179 66.9163C221.179 72.1915 218.604 80.2613 214.013 80.2613ZM243.059 60.273C243.059 60.273 246.383 55.1829 252.24 55.1829C258.589 55.1829 261.168 60.3354 261.168 66.1057C261.168 76.5354 254.504 86.8384 244.319 86.8384C241.006 86.8384 239.226 85.7217 239.226 85.7217H239.036L236.649 98.3847H227.972L234.008 67.0391C234.698 63.5001 235.391 58.7841 235.768 55.6798H243.438L242.935 60.273H243.059ZM240.355 79.1427C240.355 79.1427 241.688 80.384 243.94 80.384C248.781 80.384 252.113 72.5014 252.113 66.9768C252.113 64.6792 251.296 62.2588 248.655 62.2588C245.637 62.2588 242.808 65.7977 241.802 71.1354L240.355 79.1427ZM273.554 42.8927C270.788 42.8927 268.587 45.0655 268.587 47.8581C268.587 50.4032 270.222 52.1415 272.674 52.1415H272.799C275.504 52.1415 277.829 50.3408 277.892 47.1761C277.892 44.6933 276.195 42.8927 273.554 42.8927ZM270.095 86.2185H261.42L267.266 55.8667H276.007L270.095 86.2185ZM311.088 76.7223C313.523 69.3579 318.948 55.8668 318.948 55.8668V55.8648H328L317.374 78.3358C313.602 86.0334 309.957 91.6827 305.995 95.3444C302.914 98.1994 299.269 99.6278 297.508 100L295.12 92.737C296.565 92.2401 298.388 91.4957 300.022 90.3168C302.034 88.9506 303.731 87.0876 304.739 85.1642C304.991 84.7297 305.054 84.3555 304.928 83.7357L299.707 55.8668H308.824C308.824 55.8668 310.796 74.3507 310.961 76.7223H311.088Z" fill="white"/>
</svg>
