<svg width="400" height="128" viewBox="0 0 400 128" fill="none" xmlns="http://www.w3.org/2000/svg">
<path d="M217.193 33.9752C214.819 31.6063 210.97 31.6063 208.597 33.9752L169.913 72.5801C165.162 77.3166 157.466 77.3166 152.72 72.5801C147.969 67.8424 147.969 60.1611 152.72 55.4208L190.66 17.5602C185.912 12.8212 178.213 12.8212 173.466 17.5602L144.121 46.8431C134.626 56.3198 134.626 71.6811 144.121 81.1591C153.617 90.6359 169.01 90.6359 178.507 81.1591L217.193 42.5542C219.565 40.1853 219.565 36.344 217.193 33.9752ZM230.087 21.1085C220.591 11.6305 205.197 11.6305 195.701 21.1085L157.017 59.711C154.644 62.0786 154.644 65.9224 157.017 68.29C159.39 70.6589 163.238 70.6589 165.612 68.29L204.299 29.6875C209.047 24.9485 216.743 24.9485 221.489 29.6875C223.866 32.0552 227.714 32.0552 230.087 29.6875C232.461 27.3161 232.461 23.4774 230.087 21.1085ZM242.983 59.711C240.61 57.3446 236.759 57.3446 234.385 59.711L195.701 98.3147C190.953 103.052 183.255 103.052 178.507 98.3147C176.134 95.947 172.286 95.947 169.913 98.3147C167.535 100.685 167.535 104.526 169.913 106.892C179.405 116.369 194.803 116.369 204.299 106.892L242.983 68.29C245.356 65.9224 245.356 62.0786 242.983 59.711ZM255.879 46.8443C246.383 37.3688 230.987 37.3688 221.493 46.8443L182.806 85.4493C180.432 87.8156 180.432 91.6594 182.806 94.027C185.181 96.3972 189.03 96.3972 191.403 94.027L230.087 55.4233C234.834 50.6843 242.534 50.6843 247.28 55.4233C252.028 60.1611 252.028 67.8424 247.28 72.5801L209.34 110.442C214.088 115.178 221.783 115.178 226.534 110.442L255.879 81.1591C265.374 71.6811 265.374 56.3198 255.879 46.8443Z" fill="white"/>
</svg>
