<svg width="400" height="128" viewBox="0 0 400 128" fill="none" xmlns="http://www.w3.org/2000/svg">
<path d="M293.317 42.3531C288.858 42.3531 285.279 44.8722 283.636 49.0903L282.521 52.0195L281.465 49.0903C279.94 44.9308 276.243 42.2945 271.784 42.2945C271.198 42.2945 270.67 42.3531 270.083 42.4703V38.4865C270.083 32.4524 265.741 28 259.991 28C254.241 28 249.9 32.5109 249.9 38.4865V46.2197C246.555 43.4077 242.448 41.9431 237.989 41.9431C236.992 41.9431 235.994 42.0017 235.056 42.1773V38.5452C235.056 32.511 230.773 28.0586 225.14 28.0586C219.507 28.0586 215.224 32.5696 215.224 38.5452V47.0399C211.411 43.7592 206.717 42.0016 201.612 42.0016C195.569 42.0016 189.995 44.5207 186.006 49.0903C185.36 49.7933 184.774 50.5549 184.245 51.4337C183.717 50.6721 183.131 49.9105 182.485 49.1489C178.378 44.5207 172.746 42.0016 166.761 42.0016C162.243 42.0016 158.019 43.4077 154.499 46.044C152.739 43.5248 149.805 42.0016 146.226 42.0016C141.65 42.0016 137.777 45.1066 136.545 49.6762C134.374 42.7632 128.976 42.0016 126.688 42.0016C124.4 42.0016 119.002 42.7632 116.831 49.6762C115.658 45.1066 111.844 42.0016 107.15 42.0016C101.518 42.0016 97 46.044 97 51.1994C97 53.4842 97.528 55.3002 98.2321 57.2921L105.918 79.0269C108.5 86.2327 113.722 87.2872 116.655 87.2872C121.173 87.2872 124.752 84.9439 126.629 80.843C128.448 85.0025 132.027 87.3458 136.604 87.3458C139.537 87.3458 144.759 86.2913 147.341 79.0269L148.221 76.5078C151.976 83.1864 158.958 87.3458 167.465 87.3458C173.626 87.3458 181.781 84.7096 185.536 79.9056C189.526 84.5338 195.511 87.3458 202.434 87.3458C207.128 87.3458 213.054 85.8226 217.219 82.8934C218.979 85.4125 221.854 86.9357 225.199 86.9357C227.194 86.9357 228.954 86.4671 230.421 85.5883C232.65 86.7014 235.114 87.2872 237.696 87.2872C242.742 87.2872 247.435 85.4126 251.014 81.8389C252.657 85.1782 255.943 87.2872 259.933 87.2872C264.216 87.2872 267.736 84.7096 269.203 80.9602C269.203 80.9602 267.736 89.1034 267.736 90.6266C267.736 95.9577 272.136 100 277.945 100C282.052 100 285.572 97.3637 287.274 92.9699L302.118 56.1205C302.705 54.773 302.998 53.3084 302.998 51.6681C303.115 46.1611 298.011 42.3531 293.317 42.3531Z" fill="#1E1939"/>
<path d="M202.023 54.8315C198.092 54.8315 195.393 57.8779 194.982 61.6273H209.122C208.653 57.8193 206.248 54.8315 202.023 54.8315ZM236.698 55.6517C231.946 55.6517 229.716 60.0455 229.716 64.3808C229.716 68.6574 231.829 73.5784 236.698 73.5784C241.334 73.5784 243.622 68.7746 243.622 64.6737C243.504 60.5142 241.275 55.6517 236.698 55.6517ZM167.407 54.8315C163.476 54.8315 160.777 57.8779 160.366 61.6273H174.506C173.978 57.8193 171.572 54.8315 167.407 54.8315ZM293.317 42.3531C288.858 42.3531 285.279 44.8722 283.636 49.0903L282.521 52.0195L281.465 49.0903C279.94 44.9308 276.243 42.2945 271.784 42.2945C271.198 42.2945 270.67 42.3531 270.083 42.4703V38.4865C270.083 32.4524 265.741 28 259.991 28C254.241 28 249.9 32.5109 249.9 38.4865V46.2197C246.555 43.4077 242.448 41.9431 237.989 41.9431C236.992 41.9431 235.994 42.0017 235.056 42.1773V38.5452C235.056 32.511 230.773 28.0586 225.14 28.0586C219.507 28.0586 215.224 32.5696 215.224 38.5452V47.0399C211.411 43.7592 206.717 42.0016 201.612 42.0016C195.569 42.0016 189.995 44.5207 186.006 49.0903C185.36 49.7933 184.774 50.5549 184.245 51.4337C183.717 50.6721 183.131 49.9105 182.485 49.1489C178.378 44.5207 172.746 42.0016 166.761 42.0016C162.243 42.0016 158.019 43.4077 154.499 46.044C152.739 43.5248 149.805 42.0016 146.226 42.0016C141.65 42.0016 137.777 45.1066 136.545 49.6762C134.374 42.7632 128.976 42.0016 126.688 42.0016C124.4 42.0016 119.002 42.7632 116.831 49.6762C115.658 45.1066 111.844 42.0016 107.15 42.0016C101.518 42.0016 97 46.044 97 51.1994C97 53.4842 97.528 55.3002 98.2321 57.2921L105.918 79.0269C108.5 86.2327 113.722 87.2872 116.655 87.2872C121.173 87.2872 124.752 84.9439 126.629 80.843C128.448 85.0025 132.027 87.3458 136.604 87.3458C139.537 87.3458 144.759 86.2913 147.341 79.0269L148.221 76.5078C151.976 83.1864 158.958 87.3458 167.465 87.3458C173.626 87.3458 181.781 84.7096 185.536 79.9056C189.526 84.5338 195.511 87.3458 202.434 87.3458C207.128 87.3458 213.054 85.8226 217.219 82.8934C218.979 85.4125 221.854 86.9357 225.199 86.9357C227.194 86.9357 228.954 86.4671 230.421 85.5883C232.65 86.7014 235.114 87.2872 237.696 87.2872C242.742 87.2872 247.435 85.4126 251.014 81.8389C252.657 85.1782 255.943 87.2872 259.933 87.2872C264.216 87.2872 267.736 84.7096 269.203 80.9602C269.203 80.9602 267.736 89.1034 267.736 90.6266C267.736 95.9577 272.136 100 277.945 100C282.052 100 285.572 97.3637 287.274 92.9699L302.118 56.1205C302.705 54.773 302.998 53.3084 302.998 51.6681C303.115 46.1611 298.011 42.3532 293.317 42.3532V42.3531ZM149.864 55.3588L142.119 77.1521C141.18 79.7884 139.596 81.7217 136.662 81.7217C133.905 81.7217 132.262 80.1985 131.441 77.5622L126.805 63.0333H126.747L122.112 77.5622C121.29 80.1985 119.647 81.7217 116.89 81.7217C113.898 81.7217 112.372 79.7298 111.433 77.1521L103.747 55.476C103.102 53.6598 102.809 52.4882 102.809 51.1993C102.809 49.1489 104.686 47.567 107.326 47.567C109.556 47.567 111.081 48.9731 111.609 51.1407L116.831 68.4231H116.949L122.229 51.5508C122.933 49.0903 124.224 47.567 126.805 47.567C129.387 47.567 130.678 49.0317 131.382 51.5508L136.662 68.4231H136.78L142.002 51.1407C142.471 48.9731 144.114 47.567 146.285 47.567C148.925 47.567 150.802 49.1489 150.802 51.9609C150.744 52.9569 150.274 53.9528 149.864 55.3588H149.864ZM168.345 74.1058C172.922 74.1058 176.031 70.4735 178.437 70.4735C180.314 70.4735 182.075 72.3482 182.075 74.2815C182.075 78.0895 174.213 81.7803 167.583 81.7803C157.55 81.7803 150.978 74.5158 150.978 64.7908C150.978 55.8274 157.55 47.6842 166.879 47.6842C176.501 47.6842 182.837 56.4133 182.837 63.8535C182.837 66.4898 181.664 67.8372 178.965 67.8372H160.014C160.601 72.0553 164.238 74.1058 168.345 74.1058ZM213.875 67.7201H194.924C195.511 72.0553 199.148 74.0471 203.314 74.0471C207.89 74.0471 211 70.4149 213.406 70.4149C215.283 70.4149 217.043 72.2896 217.043 74.2229C217.043 78.0309 209.181 81.7217 202.551 81.7217C192.518 81.7217 185.947 74.4573 185.947 64.7323C185.947 55.7689 192.518 47.6256 201.847 47.6256C211.469 47.6256 217.806 56.3547 217.806 63.7949C217.747 66.4312 216.515 67.7201 213.875 67.7201ZM237.813 81.7803C234.762 81.7803 231.359 80.4328 229.716 77.738C229.188 80.0813 227.722 81.4288 225.316 81.4288C222.734 81.4288 220.916 79.4369 220.916 76.5077V38.6037C220.916 35.6159 222.617 33.6826 225.257 33.6826C227.839 33.6826 229.599 35.6745 229.599 38.6037V50.672C232.122 48.6216 234.997 47.567 238.107 47.567C247.611 47.567 252.481 56.4718 252.481 65.1423C252.422 73.4027 246.731 81.7803 237.813 81.7803ZM264.568 76.8006C264.568 79.7884 262.69 81.7217 260.109 81.7217C257.527 81.7217 255.65 79.7298 255.65 76.8006V38.4865C255.65 35.4988 257.527 33.5655 260.109 33.5655C262.69 33.5655 264.568 35.5573 264.568 38.4865V76.8006ZM297.131 54.0113L282.345 90.978C281.641 92.7941 280.233 94.4931 278.18 94.4931C275.129 94.4931 273.545 92.6184 273.545 90.6851C273.545 89.8649 273.779 88.9275 274.073 88.1074L277.945 78.4995L268.147 54.0699C267.912 53.4255 267.736 52.7225 267.736 51.7851C267.736 49.5589 270.083 47.9771 271.902 47.9771C274.073 47.9771 275.598 49.1489 276.302 51.1407L282.404 67.7786L288.975 51.1407C289.679 49.1489 291.264 47.9771 293.376 47.9771C295.195 47.9771 297.541 49.5589 297.541 51.7851C297.6 52.6639 297.424 53.3083 297.131 54.0113Z" fill="white"/>
</svg>
