<svg width="400" height="128" viewBox="0 0 400 128" fill="none" xmlns="http://www.w3.org/2000/svg">
<path fill-rule="evenodd" clip-rule="evenodd" d="M191.599 31.4504C188.522 34.0116 187.753 38.4193 187.753 38.4193L177.813 76.7782L169.649 45.3882C168.88 42.0527 167.341 37.9428 165.034 35.0838C162.194 31.4504 156.278 31.2121 155.568 31.2121C155.035 31.2121 149.178 31.4504 146.102 35.0838C143.794 37.9428 142.256 42.0527 141.487 45.3882L133.795 76.7782L123.856 38.4193C123.856 38.4193 123.087 34.3094 120.01 31.4504C115.159 27.0427 108 28.1148 108 28.1148L126.932 99.8888C126.932 99.8888 133.086 100.425 136.162 98.8762C140.244 96.7915 142.315 95.3024 144.622 85.4744C146.195 79.5081 149.553 65.7704 151.682 57.0572L151.683 57.0557C152.678 52.9826 153.405 50.0078 153.556 49.4385C153.576 49.3741 153.598 49.299 153.622 49.2155C153.888 48.2939 154.453 46.3412 155.864 46.3412C157.402 46.3412 157.934 48.426 158.171 49.4385C158.4 50.2055 159.653 55.3398 161.191 61.6435L161.191 61.6439C163.237 70.0266 165.788 80.4768 167.105 85.4744C169.649 95.2428 171.424 96.7915 175.565 98.8762C178.642 100.425 184.795 99.8888 184.795 99.8888L203.609 28.1148C203.609 28.1148 196.45 27.1023 191.599 31.4504ZM208.223 43.5417C208.223 34.4881 209.761 31.1525 213.311 29.3656C215.983 27.8777 220.566 28.0943 220.974 28.1135L220.974 28.1135C220.99 28.1143 221 28.1148 221.002 28.1148C221.002 32.999 220.529 35.7985 217.452 38.1214C216.388 38.8958 214.908 39.9083 212.838 40.6827C209.998 41.7548 208.223 43.5417 208.223 43.5417ZM217.098 43.0054C219.642 41.4568 220.944 39.6699 220.944 39.6699V42.5289V85.7719C220.944 94.5278 220.175 96.5529 216.093 98.6376C213.016 100.186 208.165 99.6502 208.165 99.6502V56.4072V55.6329V51.7612V50.9869C208.165 48.6639 208.934 47.1153 212.01 45.5666C212.898 45.0604 213.726 44.6732 214.554 44.2861L214.554 44.2861L214.554 44.286C215.383 43.8989 216.211 43.5117 217.098 43.0054ZM292 28.3534L267.979 64.151L291.763 99.8295C291.763 99.8295 281.528 101.14 276.44 96.494C273.363 93.6349 270.05 88.7507 270.05 88.7507L261.353 75.885C261.116 75.349 260.347 74.5746 259.578 74.5746C258.809 74.5746 258.336 75.1107 257.803 75.885L249.106 88.7507C249.106 88.7507 246.03 93.6349 242.716 96.494C237.569 101.14 227.097 99.8295 227.097 99.8295L250.881 64.0915L227.63 28.3534C227.63 28.3534 237.628 26.5665 242.716 31.2125C245.793 34.3098 249.343 39.4322 249.343 39.4322L258.04 52.2979C258.277 52.834 259.046 53.6083 259.815 53.6083C260.584 53.6083 261.057 53.0722 261.59 52.2979L270.287 39.4322C270.287 39.4322 273.6 34.0715 276.913 31.2125C282.06 26.5665 292 28.3534 292 28.3534Z" fill="white"/>
</svg>
