<svg width="400" height="128" viewBox="0 0 400 128" fill="none" xmlns="http://www.w3.org/2000/svg">
<path d="M157.107 63.9973C157.107 80.9754 166.974 95.6477 181.281 102.601L160.821 46.541C158.441 51.8755 157.107 57.7789 157.107 63.9973Z" fill="white"/>
<path d="M228.954 61.8345C228.954 56.5334 227.05 52.8623 225.417 50.0049C223.243 46.4716 221.205 43.4795 221.205 39.9463C221.205 36.0034 224.195 32.3331 228.408 32.3331C228.598 32.3331 228.778 32.3567 228.963 32.3673C221.332 25.376 211.166 21.1074 199.999 21.1074C185.015 21.1074 171.831 28.7958 164.162 40.4409C165.168 40.4711 166.117 40.4924 166.922 40.4924C171.409 40.4924 178.353 39.948 178.353 39.948C180.665 39.8117 180.938 43.2078 178.628 43.4812C178.628 43.4812 176.305 43.7546 173.719 43.8901L189.339 90.3507L198.725 62.1985L192.042 43.8885C189.733 43.753 187.545 43.4795 187.545 43.4795C185.233 43.3441 185.504 39.81 187.816 39.9463C187.816 39.9463 194.899 40.4907 199.114 40.4907C203.599 40.4907 210.545 39.9463 210.545 39.9463C212.858 39.81 213.13 43.2061 210.82 43.4795C210.82 43.4795 208.491 43.753 205.91 43.8885L221.411 89.9973L225.689 75.7004C227.543 69.7677 228.954 65.5064 228.954 61.8345Z" fill="white"/>
<path d="M200.752 67.75L187.883 105.146C191.725 106.276 195.789 106.894 199.999 106.894C204.994 106.894 209.784 106.03 214.243 104.462C214.128 104.279 214.023 104.084 213.937 103.871L200.752 67.75Z" fill="white"/>
<path d="M237.635 43.4199C237.819 44.7862 237.924 46.2529 237.924 47.8305C237.924 52.1832 237.111 57.0761 234.663 63.1942L221.561 101.075C234.312 93.6391 242.889 79.8237 242.889 63.9997C242.89 56.5424 240.985 49.5298 237.635 43.4199Z" fill="white"/>
<path d="M199.999 14C172.43 14 150 36.4293 150 63.9988C150 91.5716 172.43 114 199.999 114C227.567 114 250 91.5716 250 63.9988C249.999 36.4293 227.567 14 199.999 14ZM199.999 111.708C173.694 111.708 152.293 90.3057 152.293 63.9988C152.293 37.6935 173.694 16.2926 199.999 16.2926C226.302 16.2926 247.703 37.6935 247.703 63.9988C247.703 90.3057 226.302 111.708 199.999 111.708Z" fill="white"/>
</svg>
