<?xml version="1.0" encoding="utf-8"?>
<!-- Generator: Adobe Illustrator 25.2.1, SVG Export Plug-In . SVG Version: 6.00 Build 0)  -->
<svg version="1.1" id="Layer_1" xmlns="http://www.w3.org/2000/svg" xmlns:xlink="http://www.w3.org/1999/xlink" x="0px" y="0px"
	 viewBox="0 0 1200 377" style="enable-background:new 0 0 1200 377;" xml:space="preserve">
<style type="text/css">
	.st0{fill:url(#SVGID_1_);}
	.st1{fill:url(#SVGID_2_);}
	.st2{fill:url(#SVGID_3_);}
	.st3{fill:url(#SVGID_4_);}
	.st4{fill:#FFFFFF;}
	.st5{fill-rule:evenodd;clip-rule:evenodd;fill:#FFFFFF;}
</style>
<g>
	
		<linearGradient id="SVGID_1_" gradientUnits="userSpaceOnUse" x1="600" y1="0.2754" x2="600" y2="377.2754" gradientTransform="matrix(1 0 0 -1 0 377.2756)">
		<stop  offset="0" style="stop-color:#5525D0"/>
		<stop  offset="1" style="stop-color:#BEBEFF"/>
	</linearGradient>
	<path class="st0" d="M600,377c-91.3,0-178.9-6.3-260.5-18.6l0.2-1C421.2,369.7,508.8,376,600,376c82.7,0,162.7-5.2,238-15.4l0.1,1
		C762.8,371.8,682.7,377,600,377z M854,359.3l-0.1-1c22.3-3.3,44.2-7,65.1-11.2c6.8-1.3,13.5-2.7,20.1-4.1
		c78.6-17,144-39.8,189.2-66.2c46.3-27,70.8-57.6,70.8-88.4c0-30.8-24.5-61.3-70.8-88.4c-10.8-6.3-22.9-12.5-35.9-18.3l0.4-0.9
		c13.1,5.9,25.2,12.1,36,18.4c46.7,27.2,71.3,58.1,71.3,89.2s-24.7,62-71.3,89.2C1083.5,304.1,1018,327,939.2,344
		c-6.5,1.4-13.3,2.8-20.1,4.1C898.2,352.3,876.3,356,854,359.3z M323.7,355.9c-14.5-2.4-29-5-42.9-7.7c-6.8-1.3-13.6-2.7-20.1-4.1
		c-78.7-17-144.2-39.9-189.4-66.3C24.7,250.5,0,219.6,0,188.5c0-30.5,23.7-60.8,68.6-87.6l0.5,0.9C24.6,128.4,1,158.4,1,188.5
		c0,30.8,24.5,61.3,70.8,88.4c45.1,26.3,110.5,49.2,189.2,66.2c6.5,1.4,13.3,2.8,20.1,4.1c13.9,2.7,28.3,5.3,42.8,7.7L323.7,355.9z
		 M83,93.9L82.6,93c44.4-23.7,106-44.4,178.2-60c6.6-1.4,13.3-2.8,20.1-4.1c86.7-17.1,186.8-27,289.4-28.6l0,1
		C467.7,2.8,367.7,12.7,281.1,29.8c-6.7,1.3-13.5,2.7-20.1,4.1C188.9,49.5,127.3,70.3,83,93.9z M1077.6,75.5
		C1038.7,59.4,992,45.4,939,34c-6.6-1.4-13.3-2.8-20.1-4.1C823.6,11,713.3,1,600,1c-4.6,0-9.2,0-13.8,0l0-1c4.6,0,9.2,0,13.8,0
		c113.3,0,223.7,10,319.1,28.8c6.7,1.3,13.5,2.7,20.1,4.1c53.1,11.5,99.8,25.4,138.8,41.5L1077.6,75.5z"/>
</g>
<g>
	
		<linearGradient id="SVGID_2_" gradientUnits="userSpaceOnUse" x1="600" y1="74.2754" x2="600" y2="303.2754" gradientTransform="matrix(1 0 0 -1 0 377.2756)">
		<stop  offset="0" style="stop-color:#5525D0"/>
		<stop  offset="1" style="stop-color:#BEBEFF"/>
	</linearGradient>
	<path class="st1" d="M600,303c-73.4,0-145-5.9-207-17.2c-4.4-0.8-8.8-1.6-13-2.5c-52.2-10.3-95.6-24.2-125.6-40.4
		c-31-16.6-47.3-35.5-47.3-54.5c0-13.2,7.6-26.1,22.6-38.3l0.6,0.8C215.5,163,208,175.7,208,188.5c0,18.7,16.2,37.2,46.8,53.6
		c29.9,16.1,73.2,30,125.3,40.3c4.3,0.8,8.6,1.7,13,2.5c62,11.2,133.5,17.1,206.8,17.1c8.6,0,17.3-0.1,25.9-0.2l0,1
		C617.3,302.9,608.6,303,600,303z M642,302.4l0-1c59-1.8,114.5-7.4,164.9-16.5c4.4-0.8,8.8-1.6,13-2.5
		c52.1-10.3,95.4-24.2,125.3-40.3c30.6-16.4,46.8-35,46.8-53.6s-16.2-37.2-46.8-53.6c-29.9-16.1-73.2-30-125.3-40.3
		c-4.3-0.8-8.6-1.7-13-2.5c-18.5-3.3-38-6.3-58.1-8.7l0.1-1c20.1,2.4,39.7,5.3,58.2,8.7c4.4,0.8,8.8,1.6,13,2.5
		c52.2,10.3,95.6,24.2,125.6,40.4c31,16.6,47.3,35.5,47.3,54.5c0,19-16.4,37.9-47.3,54.5c-30,16.1-73.4,30.1-125.6,40.4
		c-4.3,0.8-8.7,1.7-13,2.5C756.6,295,701,300.5,642,302.4z M243.2,141.6l-0.5-0.8c3.6-2.3,7.6-4.6,11.7-6.8
		c30-16.1,73.4-30.1,125.6-40.4c4.3-0.8,8.7-1.7,13-2.5C455,79.9,526.6,74,600,74c45.6,0,90.4,2.3,132.9,6.7l-0.1,1
		C690.3,77.3,645.6,75,600,75c-73.3,0-144.9,5.9-206.8,17.1c-4.4,0.8-8.7,1.6-13,2.5c-52.1,10.3-95.4,24.2-125.3,40.3
		C250.7,137.1,246.8,139.4,243.2,141.6z"/>
</g>
<g>
	
		<linearGradient id="SVGID_3_" gradientUnits="userSpaceOnUse" x1="600" y1="110.2754" x2="600" y2="267.2754" gradientTransform="matrix(1 0 0 -1 0 377.2756)">
		<stop  offset="0" style="stop-color:#5525D0"/>
		<stop  offset="1" style="stop-color:#BEBEFF"/>
	</linearGradient>
	<path class="st2" d="M600,267c-54.1,0-106.9-4-152.8-11.5c-3.2-0.5-6.5-1.1-9.7-1.7c-39.3-7-72.1-16.6-94.7-27.7
		c-5.5-2.7-10.5-5.5-14.8-8.4l0.6-0.8c4.2,2.8,9.2,5.6,14.7,8.3c22.6,11.1,55.2,20.6,94.5,27.6c3.2,0.6,6.4,1.1,9.7,1.7
		C493.2,262,546,266,600,266c54,0,106.8-4,152.7-11.5c3.2-0.5,6.5-1.1,9.7-1.7c20.8-3.7,39.7-8.1,56.3-13.1l0.3,1
		c-16.6,5-35.6,9.4-56.4,13.2c-3.2,0.6-6.5,1.1-9.7,1.7C706.9,263,654.1,267,600,267z M834.2,235.7l-0.3-0.9c8.5-3,16.2-6.2,23-9.6
		c11.4-5.6,20.2-11.5,26.1-17.7c6-6.2,9-12.6,9-19s-3-12.8-9-19c-5.9-6.1-14.7-12.1-26.1-17.7c-22.6-11.1-55.2-20.6-94.5-27.6
		c-3.3-0.6-6.5-1.1-9.7-1.7C706.8,115,654,111,600,111c-54,0-106.8,4-152.7,11.5c-3.2,0.5-6.5,1.1-9.7,1.7
		c-39.2,7-71.9,16.6-94.5,27.6c-11.4,5.6-20.2,11.5-26.1,17.7c-6,6.2-9,12.6-9,19c0,6.2,2.8,12.3,8.3,18.3l-0.7,0.7
		c-5.7-6.2-8.6-12.5-8.6-19c0-6.7,3.1-13.3,9.3-19.7c6-6.2,14.9-12.2,26.4-17.9c22.7-11.1,55.4-20.7,94.7-27.7
		c3.2-0.6,6.5-1.1,9.7-1.7C493.1,114,545.9,110,600,110s106.9,4,152.8,11.5c3.2,0.5,6.4,1.1,9.7,1.7c39.3,7,72.1,16.6,94.7,27.7
		c11.5,5.6,20.4,11.7,26.4,17.9c6.2,6.4,9.3,13,9.3,19.7c0,6.7-3.1,13.3-9.3,19.7c-6,6.2-14.9,12.2-26.4,17.9
		C850.5,229.4,842.7,232.7,834.2,235.7z"/>
</g>
<g>
	
		<linearGradient id="SVGID_4_" gradientUnits="userSpaceOnUse" x1="600" y1="37.2754" x2="600" y2="340.2754" gradientTransform="matrix(1 0 0 -1 0 377.2756)">
		<stop  offset="0" style="stop-color:#5525D0"/>
		<stop  offset="1" style="stop-color:#BEBEFF"/>
	</linearGradient>
	<path class="st3" d="M600,340c-93.6,0-184.8-7.9-263.8-23c-5.6-1.1-11.2-2.2-16.6-3.3c-32-6.6-61.5-14.4-87.6-23.2l0.3-0.9
		c26.1,8.7,55.6,16.5,87.5,23.1c5.4,1.1,11,2.2,16.6,3.3c78.9,15,170,23,263.6,23c43.1,0,85.9-1.7,127.2-5l0.1,1
		C686,338.3,643.1,340,600,340z M743.3,333.6l-0.1-1c42.3-3.9,82.8-9.4,120.4-16.6c5.6-1.1,11.2-2.2,16.6-3.3
		c65.6-13.6,120.2-32,157.8-53.2c38.6-21.8,59-46.3,59-71c0-24.7-20.4-49.3-59-71c-28.9-16.3-67-30.7-113.2-42.8l0.3-1
		c46.3,12.1,84.5,26.6,113.4,42.9c39,21.9,59.5,46.8,59.5,71.9c0,25.1-20.6,50-59.5,71.9c-37.7,21.2-92.4,39.7-158.1,53.3
		c-5.4,1.1-11,2.2-16.6,3.3C826.2,324.2,785.6,329.8,743.3,333.6z M216.9,285.3c-21.1-7.7-39.7-16.1-55.3-24.9
		c-39-21.9-59.5-46.8-59.5-71.9c0-25.1,20.6-50,59.5-71.9c37.7-21.2,92.4-39.7,158.1-53.3c5.4-1.1,11-2.2,16.6-3.3
		c19.2-3.7,39.4-6.9,60-9.8l0.1,1c-20.6,2.8-40.8,6.1-60,9.7c-5.6,1.1-11.2,2.2-16.6,3.3c-65.6,13.6-120.2,32-157.8,53.2
		c-38.6,21.8-59,46.3-59,71s20.4,49.3,59,71c15.6,8.8,34.1,17.1,55.2,24.8L216.9,285.3z M909.3,70.8c-9.4-2.3-19.2-4.5-29.1-6.5
		c-5.4-1.1-11-2.2-16.6-3.3c-78.9-15-170-23-263.6-23c-64.9,0-128.1,3.7-187.7,11.1l-0.1-1C471.8,40.8,535,37,600,37
		c93.6,0,184.8,7.9,263.8,23c5.6,1.1,11.2,2.2,16.6,3.3c9.9,2.1,19.7,4.3,29.1,6.5L909.3,70.8z"/>
</g>
<g>
	<path class="st4" d="M560.6,189.8c0,1.5-0.2,2.9-0.7,4.1c-0.5,1.3-1.1,2.3-2,3.2c-0.8,0.9-1.8,1.6-3,2.1c-1.1,0.5-2.3,0.7-3.6,0.7
		c-1.3,0-2.5-0.3-3.6-0.8c-1.1-0.5-2.1-1.2-3-2.1c-0.8-0.9-1.5-2-2-3.2c-0.5-1.3-0.7-2.6-0.7-4.1v-15.1h1.2l1.6,2.2
		c0,0,0.9,1.3,1.3,1.8c0.4,0.5,1.4,2,1.4,2c0.4-0.3,0.7-0.5,1.2-0.7c0.4-0.2,0.9-0.3,1.3-0.4c0.4-0.1,0.9-0.1,1.3-0.1
		c1.3,0,2.5,0.3,3.6,0.8c1.1,0.5,2.1,1.2,3,2.1c0.8,0.9,1.5,2,2,3.2C560.4,187,560.6,188.4,560.6,189.8z M556,189.8
		c0-0.7-0.1-1.4-0.4-2.1c-0.2-0.7-0.6-1.2-1-1.7c-0.4-0.5-0.9-0.8-1.5-1.1c-0.5-0.3-1.1-0.4-1.8-0.4c-0.6,0-1.2,0.1-1.8,0.4
		c-0.5,0.3-1,0.7-1.5,1.2c-0.4,0.5-0.7,1-1,1.7c-0.2,0.6-0.4,1.3-0.4,2c0,0.7,0.1,1.4,0.4,2.1c0.2,0.6,0.6,1.2,1,1.6
		c0.4,0.5,0.9,0.8,1.5,1.1c0.6,0.3,1.2,0.4,1.8,0.4c0.6,0,1.2-0.1,1.8-0.4c0.6-0.3,1.1-0.7,1.5-1.1s0.7-1,1-1.6
		C555.8,191.3,556,190.6,556,189.8z"/>
</g>
<g>
	<path class="st5" d="M633.9,199.7h-4.6v-14.3H627v-4.9h2.3v-0.9c0-1.2,0.2-2.3,0.6-3.3c0.4-1,1-2,1.7-2.7c0.7-0.8,1.6-1.4,2.6-1.8
		c1-0.5,2-0.7,3.1-0.7h3.5v4.9h-3.5c-0.5,0-1,0.1-1.4,0.3c-0.4,0.2-0.8,0.4-1.1,0.8c-0.3,0.3-0.5,0.7-0.7,1.2
		c-0.2,0.4-0.3,0.9-0.3,1.4v0.9h5.7v4.9h-5.7V199.7z M570.8,195.1c-0.2,0-0.4-0.1-0.5-0.1l8.7-11.1c-0.4-0.7-0.9-1.2-1.5-1.7
		c-0.6-0.5-1.2-1-1.8-1.3c-0.6-0.3-1.3-0.6-2-0.8c-0.7-0.2-1.5-0.3-2.2-0.3c-1.3,0-2.5,0.3-3.6,0.7c-1.1,0.5-2.1,1.2-2.9,2.1
		c-0.8,0.9-1.5,2-2,3.2c-0.5,1.3-0.7,2.6-0.7,4.2c0,1.5,0.2,2.8,0.7,4.1c0.5,1.2,1.1,2.3,2,3.2c0.9,0.9,1.8,1.6,2.9,2.1
		c1.1,0.5,2.3,0.7,3.6,0.7c0.7,0,1.5-0.1,2.2-0.3c0.7-0.2,1.4-0.4,2-0.8c0.7-0.3,1.3-0.8,1.8-1.3c0.6-0.5,1.1-1.1,1.5-1.7l-3.4-3.6
		c-0.2,0.4-0.4,0.8-0.7,1.2c-0.3,0.3-0.6,0.7-1,0.9c-0.4,0.2-0.7,0.4-1.2,0.6c-0.4,0.1-0.9,0.2-1.3,0.2
		C571.2,195.1,571,195.1,570.8,195.1z M572,184.7c0.2,0,0.4,0.1,0.6,0.2l-5.4,7.6c-0.1-0.2-0.2-0.3-0.2-0.6
		c-0.1-0.2-0.1-0.4-0.2-0.7c0-0.2-0.1-0.5-0.1-0.7c0-0.2,0-0.4,0-0.6c0-0.8,0.1-1.5,0.4-2.2c0.2-0.7,0.5-1.2,1-1.7s0.9-0.8,1.4-1
		c0.6-0.3,1.2-0.4,1.8-0.4C571.6,184.7,571.8,184.7,572,184.7z M592.9,198.4c0.4-0.3,0.8-0.7,1.2-1l1.5,2.2h1.1v-19.2h-4.6v10.6
		c0,0.5-0.1,1-0.3,1.5c-0.2,0.5-0.4,0.9-0.7,1.3c-0.3,0.4-0.7,0.7-1.1,0.9c-0.4,0.2-0.9,0.3-1.3,0.3c-0.5,0-0.9-0.1-1.4-0.3
		c-0.4-0.2-0.8-0.4-1.1-0.8c-0.3-0.3-0.6-0.8-0.8-1.3c-0.2-0.5-0.3-1.1-0.3-1.7v-10.6h-4.6v10.6c0,1.4,0.2,2.6,0.6,3.7
		c0.4,1.1,1,2,1.7,2.8c0.7,0.8,1.6,1.3,2.6,1.8c1,0.4,2,0.6,3.1,0.6c0.5,0,1-0.1,1.5-0.2c0.5-0.1,1-0.3,1.4-0.5
		C592.1,199,592.5,198.8,592.9,198.4z M604.3,207h-4.7v-26.5h1.1l1.8,2.3c0.4-0.4,0.9-0.8,1.4-1.2c0.5-0.4,1-0.7,1.5-1
		c0.5-0.3,1.1-0.5,1.7-0.7c0.6-0.2,1.2-0.2,1.7-0.2c1.3,0,2.5,0.3,3.6,0.7c1.1,0.5,2.1,1.2,2.9,2c0.9,0.9,1.5,2,2,3.2
		c0.5,1.2,0.7,2.6,0.7,4.1c0,1.6-0.2,3-0.7,4.3c-0.5,1.3-1.1,2.3-2,3.2c-0.8,0.9-1.8,1.5-2.9,2c-1.1,0.5-2.3,0.7-3.6,0.7
		c-0.4,0-0.8,0-1.2-0.1c-0.4-0.1-0.8-0.2-1.2-0.4c-0.4-0.2-0.8-0.3-1.1-0.6c-0.4-0.2-0.7-0.4-1.1-0.6L604.3,207L604.3,207z
		 M613.5,189.9c0-0.8-0.1-1.5-0.4-2.2c-0.2-0.7-0.6-1.2-1-1.6c-0.4-0.5-0.9-0.8-1.5-1c-0.6-0.2-1.2-0.3-1.8-0.3s-1.2,0.1-1.8,0.3
		c-0.5,0.2-1,0.6-1.4,1c-0.4,0.4-0.7,1-1,1.6c-0.2,0.7-0.4,1.4-0.4,2.2c0,0.8,0.1,1.5,0.4,2.1c0.2,0.7,0.6,1.2,1,1.7
		s0.9,0.8,1.4,1.1c0.6,0.3,1.2,0.4,1.8,0.4s1.2-0.1,1.8-0.4s1.1-0.6,1.5-1.1s0.7-1,1-1.7C613.4,191.4,613.5,190.7,613.5,189.9z
		 M620.1,199.6h4.7v-19.2h-4.7V199.6z M646.4,202v4.9l2.4,0c1.3,0,2.5-0.3,3.6-0.8s2.1-1.2,2.9-2.1c0.8-0.9,1.5-1.9,2-3.1
		c0.5-1.2,0.7-2.4,0.7-3.8v-16.8h-4.7v10.6c0,0.5-0.1,1-0.3,1.5c-0.2,0.5-0.4,0.9-0.7,1.3c-0.3,0.4-0.7,0.7-1.1,0.9
		c-0.4,0.2-0.9,0.3-1.3,0.3c-0.5,0-0.9-0.1-1.4-0.3c-0.4-0.2-0.8-0.4-1.1-0.7c-0.3-0.3-0.6-0.8-0.8-1.3c-0.2-0.5-0.3-1.1-0.3-1.8
		v-10.6h-4.6v10.6c0,1.4,0.2,2.6,0.6,3.7c0.4,1.1,1,2,1.7,2.8c0.7,0.8,1.6,1.3,2.6,1.8c1,0.4,2,0.6,3.1,0.6c0.5,0,1.1-0.1,1.6-0.3
		c0.5-0.2,1.1-0.5,1.6-0.7c-0.2,0.4-0.4,0.9-0.7,1.2c-0.3,0.4-0.6,0.7-0.9,1c-0.4,0.3-0.7,0.5-1.1,0.7c-0.4,0.2-0.9,0.2-1.3,0.2
		L646.4,202z M624.8,173.3h-4.7v4.9h4.7V173.3z"/>
</g>
</svg>
